<svg id="Capa_1" data-name="Capa 1" xmlns="http://www.w3.org/2000/svg" viewBox="0 0 1920 261.5"><defs><style>.cls-1{fill:#2a3430;}</style></defs><title>logo_oscuro</title><path class="cls-1" d="M72.5,105l46.7,119.8h7.3l47-119.8h69V338.4H198.6V156.5h-8l-46,118.1H95.4L49.1,156.2H41.4V338.4H0V105Z" transform="translate(0 -80.6)"/><path class="cls-1" d="M353.3,158.3c48.1,0,83.3,26.5,83.3,80.1v23.3H307.3v2.4c0,30.7,15.7,45.3,41.8,45.3h4.2c25.1,0,37.6-10.4,41.8-27.9h39.4c-4.2,37.6-32,60.3-81.2,60.3h-4.2c-47.7,0-83.3-26.1-83.3-79.4v-24c0-53.6,35.5-80.1,83.3-80.1Zm-46,72.4h87.8c-1-26.1-17.8-40.1-42.1-40.1h-4.2C323.3,190.7,308.3,204.2,307.3,230.7Z" transform="translate(0 -80.6)"/><path class="cls-1" d="M501,161.8V183h7c10.1-15.7,27.5-24.7,49.5-24.7h4.2c34.5,0,59.2,21.6,59.2,69.7V338.4H578V235.6c0-27.2-13.6-40.4-36.2-40.4h-4.2c-23,0-36.6,13.2-36.6,40.4V338.4H458.2V161.7l42.8.1Z" transform="translate(0 -80.6)"/><path class="cls-1" d="M813.1,80.6V338.4H770.3V317.8h-7c-11.8,16.4-29.6,24-50.9,24h-4.2c-39.7,0-67.6-25.4-67.6-79.8V238c0-54,27.9-79.8,67.6-79.8h4.2c21.2,0,39,8,50.9,23.7h7V80.6ZM683.5,237.7v24.7c0,29.3,15.3,44.9,41.5,44.9h3.8c26.1,0,41.5-15.7,41.5-44.9V237.7c0-28.9-15-44.9-41.5-44.9H725C698.8,192.8,683.5,208.8,683.5,237.7Z" transform="translate(0 -80.6)"/><path class="cls-1" d="M923.2,158.3c48.4,0,83.9,26.8,83.9,79.8v24c0,53.6-35.5,79.8-83.9,79.8H919c-48.8,0-84.3-26.1-84.3-79.8v-24c0-53,35.5-79.8,84.3-79.8Zm-45.7,79.4v24.7c0,28.9,13.9,44.9,41.5,44.9h4.2c27.2,0,41.1-16,41.1-44.9V237.7c0-28.6-13.9-44.9-41.1-44.9H919C891.8,192.8,877.5,209.1,877.5,237.7Z" transform="translate(0 -80.6)"/><path class="cls-1" d="M1129.7,101.5c58.2,0,95.4,30.7,95.4,89.9v3.8h-44.2v-3.8c-.3-34.8-19.5-51.5-51.5-51.5h-6.3c-31.7,0-52.2,17.4-52.2,54.7v53.7c0,39,20.6,55.4,52.2,55.4h6.6c31.7,0,52.2-16,52.2-52.2v-2.4h44.6v2.4c0,61.3-38.3,90.6-96.8,90.6h-6.6c-57.8,0-96.8-29.6-96.8-93.7V194.7c0-61.7,39-93,96.8-93l6.6-.2Z" transform="translate(0 -80.6)"/><path class="cls-1" d="M1324.5,158.3c50.9,0,75.6,23.7,75.6,63.7V338.3h-42.5V317.7h-7c-12.9,16.7-28.9,24-53,24-31.3,0-57.5-16-57.5-53.6,0-33.1,21.6-53.3,71.1-53.3h46.3V222c0-22-12.5-31-33.1-31h-4.2c-18.1,0-33.1,9.1-33.1,30.7h-41.8c0-39.7,26.1-63.4,74.9-63.4ZM1282.3,285c0,15,10.4,23.3,30.3,23.3,24,0,44.9-11.2,44.9-41.5v-5.2h-42.8c-23,.1-32.4,8.5-32.4,23.4Z" transform="translate(0 -80.6)"/><path class="cls-1" d="M1466.2,161.8V183h7c10.1-15.7,27.5-24.7,49.5-24.7h4.2c34.5,0,59.2,21.6,59.2,69.7V338.4h-42.8V235.6c0-27.2-13.6-40.4-36.2-40.4h-4.2c-23,0-36.6,13.2-36.6,40.4V338.4h-42.8V161.7l42.7.1Z" transform="translate(0 -80.6)"/><path class="cls-1" d="M1652.3,161.8V183h7c10.1-15.7,27.5-24.7,49.5-24.7h4.2c34.5,0,59.2,21.6,59.2,69.7V338.4h-42.8V235.6c0-27.2-13.6-40.4-36.2-40.4H1689c-23,0-36.6,13.2-36.6,40.4V338.4h-42.8V161.7l42.7.1Z" transform="translate(0 -80.6)"/><path class="cls-1" d="M1884.5,255a30.29,30.29,0,0,0,8.5-4.9c18.3-14.9,27-19.5,27-19.5s-19.3,2.2-33.6,8.9a75.37,75.37,0,0,0-20.8,15.1l-.3.3a.77.77,0,0,0-.3.1c0-.1-.1-.3,0-.4s.2-.3.3-.4a222.14,222.14,0,0,0,26.7-34.8,112.84,112.84,0,0,0,14.9-43.5,185.17,185.17,0,0,0-28.1,35.4c-9,14.9-12.9,30.9-14.4,39.1-.1.4-.2.7-.3,1.1a28.06,28.06,0,0,0-.8,3.1c-.1.2,0,.4-.3.5s-.5-.1-.4-.5c0-.6.1-1.2.1-1.8a245.71,245.71,0,0,0,7.8-49.5,133.48,133.48,0,0,0-6.7-48.9s-9.4,20.2-10.7,48.1c-1,21,4.6,40,7.5,48.2a23.36,23.36,0,0,1,.4,2.6,3.55,3.55,0,0,1,.2,1v.7l-.2.1a1.76,1.76,0,0,1-.4-.5.75.75,0,0,1-.1-.5,20,20,0,0,0-1-2.1c-1.7-7.7-6.3-24.4-16.5-39.5-13.9-20.6-34-33-34-33a198.75,198.75,0,0,0,21.1,41.7,212.72,212.72,0,0,0,28.7,33.9v.5a2.09,2.09,0,0,0-.6-.4c-.1-.1-.3-.2-.4-.3a77.48,77.48,0,0,0-20.8-15.1c-14.3-6.7-39.7-8-39.7-8s5,.8,23.2,15.8c4.7,3.8,11.6,6.3,18.4,7.8a1.27,1.27,0,0,0-.6.1c-6.9.8-17.1,11.9-18.5,13.5.8-.6,4.6-2.6,23.9-4.3a31.14,31.14,0,0,0,12.7-4l.9-.3a6.77,6.77,0,0,0,2.4-1.2c.1-.1.3-.2.4-.3a.76.76,0,0,1,.4.1c-.2.2-.3.4-.4.5-.5.6-.9,1.2-1.4,1.8l-1.5,2.4a10.91,10.91,0,0,1-.6,1.1c-.2.6-.4,1.2-.6,1.7s-.3.9-.5,1.4a9.83,9.83,0,0,1-.5,1.6,5.73,5.73,0,0,0-.4,1.4c-.1,1.2-.2,2.5-.3,3.8V276c0,.2.1.3.2.5.2-.2.2-.3.3-.4.4-.8.7-1.5,1.1-2.3.7-1.4,1.3-2.8,2-4.1a18.67,18.67,0,0,0,1.6-3.5c.5-1.5,1-2.9,1.5-4.3.1-.3.3-.5.4-.8a.67.67,0,0,1,1,0,5.17,5.17,0,0,1,.6,1.3,19.57,19.57,0,0,0,2,4.7l.3.6a17,17,0,0,0,.9,2.4,4,4,0,0,1,.6,1.5c.4,1.2.7,2.5,1,3.8,0,.1.1.2.2.4a9.75,9.75,0,0,1,.6-1.4,5.22,5.22,0,0,0,.4-2.1,28.45,28.45,0,0,0-.4-4.1,14.19,14.19,0,0,0-1.7-4,42.83,42.83,0,0,0-2.6-3.8c-.3-.4-.6-.8-.8-1.1a.3.3,0,0,1,0-.4l.2-.1c1.4,1.3,4.4,3.3,10.5,5.2,10,3.1,31.1-4.6,31.1-4.6s-12.9-3.3-20.3-4.2c-.1-.2-.3-.2-.5-.2Z" transform="translate(0 -80.6)"/></svg>