<?xml version="1.0" encoding="utf-8"?>
<!-- Generator: Adobe Illustrator 27.9.0, SVG Export Plug-In . SVG Version: 6.00 Build 0)  -->
<svg version="1.1" id="Capa_1" xmlns="http://www.w3.org/2000/svg" xmlns:xlink="http://www.w3.org/1999/xlink" x="0px" y="0px"
	 viewBox="0 0 1920 422.5" style="enable-background:new 0 0 1920 422.5;" xml:space="preserve">
<style type="text/css">
	.st0{fill:#F3F5EE;}
	.st1{display:none;}
	.st2{display:inline;fill:#F3F5EE;}
</style>
<g>
	<path class="st0" d="M72.5,105l46.7,119.8h7.3l47-119.8h69v233.4h-43.9V156.5h-8l-46,118.1H95.4L49.1,156.2h-7.7v182.2H0V105H72.5z
		"/>
	<path class="st0" d="M353.3,158.3c48.1,0,83.3,26.5,83.3,80.1v23.3H307.3v2.4c0,30.7,15.7,45.3,41.8,45.3h4.2
		c25.1,0,37.6-10.4,41.8-27.9h39.4c-4.2,37.6-32,60.3-81.2,60.3h-4.2c-47.7,0-83.3-26.1-83.3-79.4v-24c0-53.6,35.5-80.1,83.3-80.1
		L353.3,158.3L353.3,158.3z M307.3,230.7h87.8c-1-26.1-17.8-40.1-42.1-40.1h-4.2C323.3,190.7,308.3,204.2,307.3,230.7z"/>
	<path class="st0" d="M501,161.8V183h7c10.1-15.7,27.5-24.7,49.5-24.7h4.2c34.5,0,59.2,21.6,59.2,69.7v110.4H578V235.6
		c0-27.2-13.6-40.4-36.2-40.4h-4.2c-23,0-36.6,13.2-36.6,40.4v102.8h-42.8V161.7L501,161.8L501,161.8L501,161.8z"/>
	<path class="st0" d="M813.1,80.6v257.8h-42.8v-20.6h-7c-11.8,16.4-29.6,24-50.9,24h-4.2c-39.7,0-67.6-25.4-67.6-79.8v-24
		c0-54,27.9-79.8,67.6-79.8h4.2c21.2,0,39,8,50.9,23.7h7V80.6H813.1z M683.5,237.7v24.7c0,29.3,15.3,44.9,41.5,44.9h3.8
		c26.1,0,41.5-15.7,41.5-44.9v-24.7c0-28.9-15-44.9-41.5-44.9H725C698.8,192.8,683.5,208.8,683.5,237.7z"/>
	<path class="st0" d="M923.2,158.3c48.4,0,83.9,26.8,83.9,79.8v24c0,53.6-35.5,79.8-83.9,79.8H919c-48.8,0-84.3-26.1-84.3-79.8v-24
		c0-53,35.5-79.8,84.3-79.8H923.2z M877.5,237.7v24.7c0,28.9,13.9,44.9,41.5,44.9h4.2c27.2,0,41.1-16,41.1-44.9v-24.7
		c0-28.6-13.9-44.9-41.1-44.9H919C891.8,192.8,877.5,209.1,877.5,237.7z"/>
	<path class="st0" d="M1129.7,101.5c58.2,0,95.4,30.7,95.4,89.9v3.8h-44.2v-3.8c-0.3-34.8-19.5-51.5-51.5-51.5h-6.3
		c-31.7,0-52.2,17.4-52.2,54.7v53.7c0,39,20.6,55.4,52.2,55.4h6.6c31.7,0,52.2-16,52.2-52.2v-2.4h44.6v2.4
		c0,61.3-38.3,90.6-96.8,90.6h-6.6c-57.8,0-96.8-29.6-96.8-93.7v-53.7c0-61.7,39-93,96.8-93L1129.7,101.5L1129.7,101.5L1129.7,101.5
		z"/>
	<path class="st0" d="M1324.5,158.3c50.9,0,75.6,23.7,75.6,63.7v116.3h-42.5v-20.6h-7c-12.9,16.7-28.9,24-53,24
		c-31.3,0-57.5-16-57.5-53.6c0-33.1,21.6-53.3,71.1-53.3h46.3V222c0-22-12.5-31-33.1-31h-4.2c-18.1,0-33.1,9.1-33.1,30.7h-41.8
		c0-39.7,26.1-63.4,74.9-63.4L1324.5,158.3L1324.5,158.3L1324.5,158.3z M1282.3,285c0,15,10.4,23.3,30.3,23.3
		c24,0,44.9-11.2,44.9-41.5v-5.2h-42.8C1291.7,261.7,1282.3,270.1,1282.3,285L1282.3,285z"/>
	<path class="st0" d="M1466.2,161.8V183h7c10.1-15.7,27.5-24.7,49.5-24.7h4.2c34.5,0,59.2,21.6,59.2,69.7v110.4h-42.8V235.6
		c0-27.2-13.6-40.4-36.2-40.4h-4.2c-23,0-36.6,13.2-36.6,40.4v102.8h-42.8V161.7L1466.2,161.8L1466.2,161.8L1466.2,161.8z"/>
	<path class="st0" d="M1652.3,161.8V183h7c10.1-15.7,27.5-24.7,49.5-24.7h4.2c34.5,0,59.2,21.6,59.2,69.7v110.4h-42.8V235.6
		c0-27.2-13.6-40.4-36.2-40.4h-4.2c-23,0-36.6,13.2-36.6,40.4v102.8h-42.8V161.7L1652.3,161.8L1652.3,161.8L1652.3,161.8z"/>
</g>
<g class="st1">
	<path class="st2" d="M322,338.9c-1.9,7.6-7.6,13.3-17.8,13.3c-13.3,0-20-10-20-22.5s6.7-22.8,20.3-22.8c10.7,0,16.3,6.1,17.6,13.5
		h-6.5c-1.5-4.5-4.5-8.1-11.3-8.1c-9.4,0-13.2,8.5-13.2,17.3s3.6,17.3,13.4,17.3c6.7,0,9.5-4,11-7.9L322,338.9L322,338.9L322,338.9z
		"/>
	<path class="st2" d="M366.8,329.4c0,12.2-6.9,22.9-20.9,22.9c-13.1,0-20.4-10-20.4-22.7s7.5-22.7,20.9-22.7
		C358.9,306.9,366.8,316.2,366.8,329.4L366.8,329.4z M332.3,329.4c0,9.4,4.7,17.4,13.8,17.4c9.9,0,13.8-8.2,13.8-17.3
		s-4.4-17-13.8-17S332.3,320.2,332.3,329.4L332.3,329.4z"/>
	<path class="st2" d="M373,351.7v-44.1h8.5c6.2,10.2,19.2,31.4,21.6,36.2h0.1c-0.4-5.5-0.4-12.5-0.4-19.8v-16.5h6.1v44.1h-8
		c-5.6-9.4-19.4-32.4-22-37.4h-0.1c0.3,4.8,0.3,12.6,0.3,20.5v16.9L373,351.7L373,351.7L373,351.7z"/>
	<path class="st2" d="M453.9,351.7h-5c-0.3-0.9-0.5-2.8-0.6-5.7c-2,3.2-5.9,6.3-13.5,6.3c-12.7,0-19.6-9.6-19.6-22.2
		c0-13.2,7.3-23.2,20.8-23.2c10.5,0,17,5.7,18.2,13.5h-6.5c-1.4-4.5-4.7-8.1-11.8-8.1c-10,0-13.8,8.1-13.8,17.5
		c0,8.8,3.9,17.1,13.6,17.1s11.8-6.4,11.8-13.2v-0.5h-11.9v-5.5h18.3L453.9,351.7L453.9,351.7z"/>
	<path class="st2" d="M468.1,332.6v19.1h-6.5v-44.1h17.6c9.2,0,14.1,5,14.1,11.9c0,5.8-3.3,9.2-7.3,10.4c3.3,0.9,6.5,3.5,6.5,11.2v2
		c0,3-0.1,6.8,0.6,8.7h-6.3c-0.8-1.9-0.8-5.3-0.8-9.6v-0.9c0-6-1.7-8.6-9.4-8.6L468.1,332.6L468.1,332.6L468.1,332.6z M468.1,327.2
		h9.3c6.5,0,9.2-2.4,9.2-7.1s-2.9-7-8.7-7h-9.9V327.2L468.1,327.2z"/>
	<path class="st2" d="M528.3,331.4h-21.8v14.8h23.9l-0.8,5.5h-29.5v-44.1h29.2v5.5h-22.8v12.7h21.8L528.3,331.4L528.3,331.4
		L528.3,331.4z"/>
	<path class="st2" d="M539.4,339.3c1.2,5.1,4.7,7.8,10.8,7.8c6.5,0,9.2-3,9.2-7c0-4.3-2.2-6.6-10.8-8.6
		c-10.7-2.6-14.2-6.3-14.2-12.4c0-6.8,5-12.1,15-12.1c10.7,0,15.1,6.1,15.7,12h-6.7c-0.7-3.7-3-6.9-9.3-6.9c-5.1,0-8,2.3-8,6.3
		s2.4,5.5,10,7.3c12.6,3.1,15,7.9,15,13.7c0,7.3-5.4,12.9-16.4,12.9s-16.1-6-17-13L539.4,339.3L539.4,339.3z"/>
	<path class="st2" d="M611,329.4c0,12.2-6.9,22.9-20.9,22.9c-13.1,0-20.4-10-20.4-22.7s7.5-22.7,20.9-22.7
		C603.2,306.9,611.1,316.2,611,329.4L611,329.4z M576.6,329.4c0,9.4,4.7,17.4,13.8,17.4c9.9,0,13.8-8.2,13.8-17.3s-4.4-17-13.8-17
		S576.6,320.2,576.6,329.4L576.6,329.4z"/>
	<path class="st2" d="M668,333.3c0-8.1,0.1-16.4,0.3-21.1H668c-1.9,7.5-8.6,25.6-13.4,39.5h-5.8c-3.7-11.4-10.6-31.8-12.5-39.6H636
		c0.3,5.1,0.5,14.8,0.5,22.3v17.3h-6.1v-44.1h9.8c4.7,13.3,10.4,30.3,11.9,36.1h0.1c1-4.5,7.8-23.2,12.7-36.1h9.5v44.1H668
		L668,333.3L668,333.3L668,333.3z"/>
	<path class="st2" d="M711.5,331.4h-21.8v14.8h23.9l-0.8,5.5h-29.5v-44.1h29.2v5.5h-22.8v12.7h21.8L711.5,331.4L711.5,331.4
		L711.5,331.4z"/>
	<path class="st2" d="M718.6,351.7v-44.1h8.5c6.2,10.2,19.2,31.4,21.6,36.2h0.1c-0.4-5.5-0.4-12.5-0.4-19.8v-16.5h6.1v44.1h-8
		c-5.6-9.4-19.4-32.4-22-37.4h-0.1c0.3,4.8,0.3,12.6,0.3,20.5v16.9L718.6,351.7L718.6,351.7L718.6,351.7z"/>
	<path class="st2" d="M763.5,307.5h16.1c12.5,0,20.9,8.5,20.9,21.6s-8.2,22.5-21.1,22.5h-15.8V307.5z M770,346.2h8.8
		c10,0,14.7-7.2,14.7-16.9c0-8.4-4.3-16.2-14.7-16.2H770L770,346.2L770,346.2z"/>
	<path class="st2" d="M845.6,329.4c0,12.2-6.9,22.9-20.9,22.9c-13.1,0-20.4-10-20.4-22.7s7.5-22.7,20.9-22.7
		C837.7,306.9,845.6,316.2,845.6,329.4L845.6,329.4z M811.1,329.4c0,9.4,4.7,17.4,13.8,17.4c9.9,0,13.8-8.2,13.8-17.3
		s-4.4-17-13.8-17S811.1,320.2,811.1,329.4L811.1,329.4z"/>
	<path class="st2" d="M887.2,338.9c-1.9,7.6-7.6,13.3-17.8,13.3c-13.3,0-20-10-20-22.5s6.7-22.8,20.3-22.8
		c10.7,0,16.3,6.1,17.6,13.5h-6.5c-1.5-4.5-4.5-8.1-11.3-8.1c-9.4,0-13.2,8.5-13.2,17.3s3.6,17.3,13.4,17.3c6.7,0,9.5-4,11-7.9
		L887.2,338.9L887.2,338.9L887.2,338.9z"/>
	<path class="st2" d="M899.4,307.5v44.1h-6.5v-44.1H899.4z"/>
	<path class="st2" d="M908.3,351.7v-44.1h8.5c6.2,10.2,19.2,31.4,21.6,36.2h0.1c-0.4-5.5-0.4-12.5-0.4-19.8v-16.5h6.1v44.1h-8
		c-5.6-9.4-19.4-32.4-22-37.4h-0.1c0.3,4.8,0.3,12.6,0.3,20.5v16.9L908.3,351.7L908.3,351.7L908.3,351.7z"/>
	<path class="st2" d="M991.8,329.4c0,12.2-6.9,22.9-20.9,22.9c-13.1,0-20.4-10-20.4-22.7s7.5-22.7,20.9-22.7
		C983.9,306.9,991.8,316.2,991.8,329.4L991.8,329.4z M957.3,329.4c0,9.4,4.7,17.4,13.8,17.4c9.9,0,13.8-8.2,13.8-17.3
		s-4.4-17-13.8-17S957.3,320.2,957.3,329.4L957.3,329.4z"/>
	<path class="st2" d="M1011.2,307.5h16.1c12.5,0,20.9,8.5,20.9,21.6s-8.2,22.5-21.1,22.5h-15.8V307.5z M1017.7,346.2h8.8
		c10,0,14.7-7.2,14.7-16.9c0-8.4-4.3-16.2-14.7-16.2h-8.9L1017.7,346.2L1017.7,346.2z"/>
	<path class="st2" d="M1082.5,331.4h-21.8v14.8h23.9l-0.8,5.5h-29.5v-44.1h29.2v5.5h-22.8v12.7h21.8L1082.5,331.4L1082.5,331.4
		L1082.5,331.4z"/>
	<path class="st2" d="M1089.7,307.5h6.5v38.6h22.8l-0.9,5.5h-28.5L1089.7,307.5L1089.7,307.5z"/>
	<path class="st2" d="M1171.4,338.9c-1.9,7.6-7.6,13.3-17.8,13.3c-13.3,0-20-10-20-22.5s6.7-22.8,20.3-22.8
		c10.7,0,16.3,6.1,17.6,13.5h-6.5c-1.5-4.5-4.5-8.1-11.3-8.1c-9.4,0-13.2,8.5-13.2,17.3s3.6,17.3,13.4,17.3c6.7,0,9.5-4,11-7.9
		L1171.4,338.9L1171.4,338.9L1171.4,338.9z"/>
	<path class="st2" d="M1183.2,339l-4.5,12.6h-6.5l15.6-44.1h8.1l16.2,44.1h-6.9l-4.7-12.6H1183.2L1183.2,339z M1198.9,333.5
		c-4-11.1-6.3-17.3-7.2-20.8h-0.1c-1.1,3.9-3.6,11.2-6.8,20.8H1198.9z"/>
	<path class="st2" d="M1216,351.7v-44.1h8.5c6.2,10.2,19.2,31.4,21.6,36.2h0.1c-0.4-5.5-0.4-12.5-0.4-19.8v-16.5h6.1v44.1h-8
		c-5.6-9.4-19.4-32.4-22-37.4h-0.1c0.3,4.8,0.3,12.6,0.3,20.5v16.9L1216,351.7L1216,351.7L1216,351.7z"/>
	<path class="st2" d="M1260.9,351.7v-44.1h8.5c6.2,10.2,19.2,31.4,21.6,36.2h0.1c-0.4-5.5-0.4-12.5-0.4-19.8v-16.5h6.1v44.1h-8
		c-5.6-9.4-19.4-32.4-22-37.4h-0.1c0.3,4.8,0.3,12.6,0.3,20.5v16.9L1260.9,351.7L1260.9,351.7L1260.9,351.7z"/>
	<path class="st2" d="M1312.1,339l-4.5,12.6h-6.5l15.6-44.1h8.1l16.2,44.1h-6.9l-4.7-12.6H1312.1L1312.1,339z M1327.8,333.5
		c-4-11.1-6.3-17.3-7.2-20.8h-0.1c-1.1,3.9-3.6,11.2-6.8,20.8H1327.8z"/>
	<path class="st2" d="M1344.9,307.5h17.4c9.6,0,13.8,5,13.8,11.1c0,5.1-2.9,8.4-6.2,9.6c3.1,1,7.6,4.1,7.6,10.5
		c0,8.2-6.3,13-14.8,13h-17.8L1344.9,307.5L1344.9,307.5L1344.9,307.5z M1361.2,325.7c6.1,0,8.4-2.4,8.4-6.5c0-3.8-2.7-6.4-7.6-6.4
		h-10.6v12.8L1361.2,325.7L1361.2,325.7z M1351.3,346.4h10.5c5.5,0,9-2.5,9-7.7c0-4.5-2.9-7.6-9.9-7.6h-9.5V346.4z"/>
	<path class="st2" d="M1390.1,307.5v44.1h-6.5v-44.1H1390.1z"/>
	<path class="st2" d="M1402,339.3c1.2,5.1,4.7,7.8,10.8,7.8c6.5,0,9.2-3,9.2-7c0-4.3-2.2-6.6-10.8-8.6c-10.7-2.6-14.2-6.3-14.2-12.4
		c0-6.8,5-12.1,15-12.1c10.7,0,15.1,6.1,15.7,12h-6.7c-0.7-3.7-3-6.9-9.3-6.9c-5.1,0-8,2.3-8,6.3s2.4,5.5,10,7.3
		c12.6,3.1,15,7.9,15,13.7c0,7.3-5.4,12.9-16.4,12.9s-16.1-6-17.1-13L1402,339.3L1402,339.3z"/>
	<path class="st2" d="M1444.9,351.7v-0.4c0-6.3,3.8-12.5,12.5-19c6.5-5,8.4-6.6,8.4-11c0-4.1-2.1-7-6.9-7s-7.1,2.6-7.9,7.4h-6.1
		c0.7-7.1,5.3-12.6,14-12.6c9.6,0,13.3,6.1,13.3,12c0,6.3-2.7,8.8-10.4,14.7c-5.6,4.3-8.5,7.5-9.5,10.4h21.5l-0.9,5.4L1444.9,351.7
		L1444.9,351.7L1444.9,351.7z"/>
	<path class="st2" d="M1506.2,330.5c0,10.6-3.1,21.9-14.9,21.9s-14.9-10.7-14.9-21.7s3.6-21.7,15.1-21.7
		C1502.8,309.1,1506.2,319.5,1506.2,330.5L1506.2,330.5z M1483,330.8c0,7.9,1.3,16.5,8.4,16.5s8.3-8.1,8.3-16.7
		c0-8.1-1.3-16.2-8.1-16.2C1484.6,314.3,1483,321.6,1483,330.8z"/>
	<path class="st2" d="M1509.4,351.7v-0.4c0-6.3,3.8-12.5,12.5-19c6.5-5,8.4-6.6,8.4-11c0-4.1-2.1-7-6.9-7s-7.1,2.6-7.9,7.4h-6.1
		c0.7-7.1,5.3-12.6,14-12.6c9.6,0,13.3,6.1,13.3,12c0,6.3-2.7,8.8-10.4,14.7c-5.6,4.3-8.5,7.5-9.5,10.4h21.5l-0.9,5.4L1509.4,351.7
		L1509.4,351.7L1509.4,351.7z"/>
	<path class="st2" d="M1558.7,351.7v-10.5h-19.5v-5.6l18.7-25.7h6.7v26h5.3l-0.6,5.3h-4.7v10.5L1558.7,351.7L1558.7,351.7z
		 M1558.7,326c0-3.5,0-7.3,0.2-10c-1.7,3.3-9.3,13.8-13.7,20h13.5V326L1558.7,326L1558.7,326z"/>
	<path class="st2" d="M505.2,402.5c-1.9,7.6-7.6,13.3-17.8,13.3c-13.3,0-20-10-20-22.5s6.7-22.8,20.3-22.8
		c10.7,0,16.3,6.1,17.6,13.5h-6.5c-1.5-4.5-4.5-8.1-11.3-8.1c-9.4,0-13.2,8.5-13.2,17.3s3.6,17.3,13.4,17.3c6.7,0,9.5-4,11-7.9
		L505.2,402.5L505.2,402.5L505.2,402.5z"/>
	<path class="st2" d="M516.9,371.1v26.5c0,10.1,5.5,12.8,10.9,12.8c6.4,0,10.8-3,10.8-12.8v-26.5h6.6v26.2
		c0,14.5-8.1,18.5-17.5,18.5s-17.4-4.4-17.4-18.1v-26.5H516.9z"/>
	<path class="st2" d="M553.7,371.1h6.5v38.6h22.8l-0.9,5.5h-28.5L553.7,371.1L553.7,371.1z"/>
	<path class="st2" d="M589.1,376.6H575v-5.5h34.8v5.5h-14.1v38.6h-6.6L589.1,376.6L589.1,376.6L589.1,376.6z"/>
	<path class="st2" d="M619.7,371.1v44.1h-6.5v-44.1H619.7z"/>
	<path class="st2" d="M639.2,415.2l-16-44.1h7l7.5,21.7c2.2,6.4,4.3,12.7,5.3,16.8h0.1c0.9-3.7,3.3-10.2,5.5-16.6l7.8-21.9h6.7
		L647,415.2L639.2,415.2L639.2,415.2z"/>
	<path class="st2" d="M705.3,392.9c0,12.2-6.9,22.9-20.9,22.9c-13.1,0-20.4-10-20.4-22.7s7.5-22.7,20.9-22.7
		C697.5,370.4,705.4,379.7,705.3,392.9L705.3,392.9z M670.9,392.9c0,9.4,4.7,17.4,13.8,17.4c9.9,0,13.8-8.2,13.8-17.3
		s-4.4-17-13.8-17S670.9,383.7,670.9,392.9L670.9,392.9z"/>
	<path class="st2" d="M704.5,422.5c3.4-7.4,4.2-12.9,4.6-17h6.3c-0.6,5.8-2.6,12.5-5.9,17H704.5L704.5,422.5z"/>
	<path class="st2" d="M740.9,371.1v44.1h-6.5v-44.1H740.9z"/>
	<path class="st2" d="M749.8,415.2v-44.1h8.5c6.2,10.2,19.2,31.4,21.6,36.2h0.1c-0.4-5.5-0.4-12.5-0.4-19.8v-16.5h6.1v44.1h-8
		c-5.6-9.4-19.4-32.4-22-37.4h-0.1c0.3,4.8,0.3,12.6,0.3,20.5v16.9L749.8,415.2L749.8,415.2L749.8,415.2z"/>
	<path class="st2" d="M794.7,371.1h16.1c12.5,0,20.9,8.5,20.9,21.6s-8.2,22.5-21.1,22.5h-15.8V371.1z M801.3,409.7h8.8
		c10,0,14.7-7.2,14.7-16.9c0-8.4-4.3-16.2-14.7-16.2h-8.9L801.3,409.7L801.3,409.7z"/>
	<path class="st2" d="M844.3,371.1v26.5c0,10.1,5.5,12.8,10.9,12.8c6.4,0,10.8-3,10.8-12.8v-26.5h6.6v26.2
		c0,14.5-8.1,18.5-17.5,18.5s-17.4-4.4-17.4-18.1v-26.5H844.3z"/>
	<path class="st2" d="M883.5,402.8c1.2,5.1,4.7,7.8,10.8,7.8c6.5,0,9.2-3,9.2-7c0-4.3-2.2-6.6-10.8-8.6
		c-10.7-2.6-14.2-6.3-14.2-12.4c0-6.8,5-12.1,15-12.1c10.7,0,15.1,6.1,15.7,12h-6.7c-0.7-3.7-3-6.9-9.3-6.9c-5.1,0-8,2.3-8,6.3
		s2.4,5.5,10,7.3c12.6,3.1,15,7.9,15,13.7c0,7.3-5.4,12.9-16.4,12.9s-16.1-6-17-13L883.5,402.8L883.5,402.8z"/>
	<path class="st2" d="M924.8,376.6h-14.1v-5.5h34.8v5.5h-14.1v38.6h-6.6L924.8,376.6L924.8,376.6L924.8,376.6z"/>
	<path class="st2" d="M955.4,396.1v19.1h-6.5v-44.1h17.7c9.2,0,14.1,5,14.1,11.9c0,5.8-3.3,9.2-7.3,10.4c3.3,0.9,6.5,3.5,6.5,11.2v2
		c0,3-0.1,6.8,0.6,8.7h-6.3c-0.8-1.9-0.8-5.3-0.8-9.6v-0.9c0-6-1.7-8.6-9.4-8.6L955.4,396.1L955.4,396.1L955.4,396.1z M955.4,390.7
		h9.3c6.5,0,9.2-2.4,9.2-7.1s-2.9-7-8.7-7h-9.9L955.4,390.7L955.4,390.7z"/>
	<path class="st2" d="M994.1,371.1v44.1h-6.5v-44.1H994.1z"/>
	<path class="st2" d="M1009.3,402.5l-4.5,12.6h-6.5l15.6-44.1h8.1l16.2,44.1h-6.9l-4.7-12.6H1009.3L1009.3,402.5z M1025,397
		c-4-11.1-6.3-17.3-7.2-20.8h-0.1c-1.1,3.9-3.6,11.2-6.8,20.8H1025z"/>
	<path class="st2" d="M1065.1,415.2v-16.1c0-0.4-0.1-0.9-0.3-1.2l-15.5-26.8h7.5c3.9,7.1,9.9,18,12,22c1.9-4,8.2-15,12.2-22h6.9
		L1072,398c-0.2,0.3-0.3,0.5-0.3,1.2v16.1L1065.1,415.2L1065.1,415.2z"/>
	<path class="st2" d="M1141.2,396.8c0-8.1,0.1-16.4,0.3-21.1h-0.3c-1.9,7.5-8.6,25.6-13.4,39.5h-5.8c-3.7-11.4-10.6-31.8-12.5-39.6
		h-0.2c0.3,5.1,0.5,14.8,0.5,22.3v17.3h-6.1v-44.1h9.8c4.7,13.3,10.4,30.3,11.9,36.1h0.1c1.1-4.5,7.8-23.2,12.7-36.1h9.5v44.1h-6.4
		L1141.2,396.8L1141.2,396.8L1141.2,396.8z"/>
	<path class="st2" d="M1184.7,394.9h-21.8v14.8h23.9l-0.8,5.5h-29.5v-44.1h29.2v5.5h-22.8v12.7h21.8L1184.7,394.9L1184.7,394.9
		L1184.7,394.9z"/>
	<path class="st2" d="M1191.8,371.1h16.1c12.5,0,20.9,8.5,20.9,21.6s-8.2,22.5-21.1,22.5h-15.8V371.1z M1198.3,409.7h8.8
		c10,0,14.7-7.2,14.7-16.9c0-8.4-4.3-16.2-14.7-16.2h-8.9L1198.3,409.7L1198.3,409.7z"/>
	<path class="st2" d="M1241.5,371.1v44.1h-6.5v-44.1H1241.5z"/>
	<path class="st2" d="M1285.6,402.5c-1.9,7.6-7.6,13.3-17.8,13.3c-13.3,0-20-10-20-22.5s6.7-22.8,20.3-22.8
		c10.7,0,16.3,6.1,17.6,13.5h-6.5c-1.5-4.5-4.5-8.1-11.3-8.1c-9.4,0-13.2,8.5-13.2,17.3s3.6,17.3,13.4,17.3c6.7,0,9.5-4,11-7.9
		L1285.6,402.5L1285.6,402.5L1285.6,402.5z"/>
	<path class="st2" d="M1297.7,371.1v44.1h-6.5v-44.1H1297.7z"/>
	<path class="st2" d="M1306.7,415.2v-44.1h8.5c6.2,10.2,19.2,31.4,21.6,36.2h0.1c-0.4-5.5-0.4-12.5-0.4-19.8v-16.5h6.1v44.1h-8
		c-5.6-9.4-19.4-32.4-22-37.4h-0.1c0.3,4.8,0.3,12.6,0.3,20.5v16.9L1306.7,415.2L1306.7,415.2L1306.7,415.2z"/>
	<path class="st2" d="M1357.8,402.5l-4.5,12.6h-6.5l15.6-44.1h8.1l16.2,44.1h-6.9l-4.7-12.6H1357.8L1357.8,402.5z M1373.6,397
		c-4-11.1-6.3-17.3-7.2-20.8h-0.1c-1.1,3.9-3.6,11.2-6.8,20.8H1373.6z"/>
</g>
<path class="st0" d="M1884.5,255c3-1.2,5.9-2.7,8.5-4.9c18.3-14.9,27-19.5,27-19.5s-19.3,2.2-33.6,8.9c-9.5,4.5-16.9,11.1-20.8,15.1
	c-0.1,0.1-0.2,0.2-0.3,0.3c0,0-0.1,0-0.3,0.1c0-0.1-0.1-0.3,0-0.4c0.1-0.1,0.2-0.3,0.3-0.4c4.4-4.7,16.4-17.9,26.7-34.8
	c12.9-21.2,14.9-43.5,14.9-43.5s-15.2,14.2-28.1,35.4c-9,14.9-12.9,30.9-14.4,39.1c-0.1,0.4-0.2,0.7-0.3,1.1c-0.3,1-0.6,2-0.8,3.1
	c-0.1,0.2,0,0.4-0.3,0.5s-0.5-0.1-0.4-0.5c0-0.6,0.1-1.2,0.1-1.8c1.7-6.3,6.7-26.4,7.8-49.5c1.3-27.9-6.7-48.9-6.7-48.9
	s-9.4,20.2-10.7,48.1c-1,21,4.6,40,7.5,48.2c0.2,0.9,0.3,1.7,0.4,2.6c0.1,0.3,0.2,0.7,0.2,1c0,0.2,0,0.4,0,0.7l-0.2,0.1
	c-0.2-0.2-0.3-0.3-0.4-0.5c-0.1-0.1-0.1-0.3-0.1-0.5c-0.3-0.7-0.6-1.4-1-2.1c-1.7-7.7-6.3-24.4-16.5-39.5c-13.9-20.6-34-33-34-33
	s7.2,21.1,21.1,41.7c11.4,16.9,24.4,29.9,28.7,33.9c0,0.1,0,0.3,0,0.5c-0.2-0.2-0.4-0.3-0.6-0.4c-0.1-0.1-0.3-0.2-0.4-0.3
	c-3.9-3.9-11.3-10.6-20.8-15.1c-14.3-6.7-39.7-8-39.7-8s5,0.8,23.2,15.8c4.7,3.8,11.6,6.3,18.4,7.8c-0.2,0-0.4,0-0.6,0.1
	c-6.9,0.8-17.1,11.9-18.5,13.5c0.8-0.6,4.6-2.6,23.9-4.3c5.4-0.5,9.8-2.3,12.7-4c0.3-0.1,0.6-0.2,0.9-0.3c0.9-0.3,1.7-0.6,2.4-1.2
	c0.1-0.1,0.3-0.2,0.4-0.3c0.1,0,0.2,0,0.4,0.1c-0.2,0.2-0.3,0.4-0.4,0.5c-0.5,0.6-0.9,1.2-1.4,1.8c-0.5,0.8-1,1.6-1.5,2.4
	c-0.2,0.4-0.4,0.8-0.6,1.1c-0.2,0.6-0.4,1.2-0.6,1.7c-0.2,0.5-0.3,0.9-0.5,1.4c-0.2,0.5-0.2,1.1-0.5,1.6c-0.2,0.4-0.3,0.9-0.4,1.4
	c-0.1,1.2-0.2,2.5-0.3,3.8c0,0.4,0,0.9,0,1.3c0,0.2,0.1,0.3,0.2,0.5c0.2-0.2,0.2-0.3,0.3-0.4c0.4-0.8,0.7-1.5,1.1-2.3
	c0.7-1.4,1.3-2.8,2-4.1c0.6-1.1,1.2-2.2,1.6-3.5c0.5-1.5,1-2.9,1.5-4.3c0.1-0.3,0.3-0.5,0.4-0.8c0.3-0.3,0.8-0.3,1,0
	c0.2,0.4,0.5,0.8,0.6,1.3c0.4,1.7,1.2,3.2,2,4.7c0.1,0.2,0.2,0.4,0.3,0.6c0.3,0.8,0.5,1.7,0.9,2.4c0.3,0.4,0.5,1,0.6,1.5
	c0.4,1.2,0.7,2.5,1,3.8c0,0.1,0.1,0.2,0.2,0.4c0.2-0.6,0.4-1,0.6-1.4c0.3-0.7,0.4-1.4,0.4-2.1c0-1.4-0.2-2.7-0.4-4.1
	c-0.3-1.5-1-2.7-1.7-4c-0.7-1.3-1.7-2.5-2.6-3.8c-0.3-0.4-0.6-0.8-0.8-1.1c-0.1-0.1-0.1-0.3,0-0.4c0,0,0.2-0.1,0.2-0.1
	c1.4,1.3,4.4,3.3,10.5,5.2c10,3.1,31.1-4.6,31.1-4.6s-12.9-3.3-20.3-4.2C1884.9,255,1884.7,255,1884.5,255L1884.5,255z"/>
</svg>
