<?xml version="1.0" encoding="UTF-8"?>
<svg id="Capa_1" data-name="Capa 1" xmlns="http://www.w3.org/2000/svg" viewBox="0 0 1920 422.48">
  <defs>
    <style>
      .cls-1 {
        fill: #2a3330;
        stroke-width: 0px;
      }
    </style>
  </defs>
  <g>
    <path class="cls-1" d="m72.47,24.38l46.68,119.83h7.31l47.02-119.83h68.98v233.39h-43.89V75.92h-8.02l-45.99,118.1h-49.12l-46.33-118.44h-7.65v182.19H0V24.38h72.47Z"/>
    <path class="cls-1" d="m353.25,77.68c48.07,0,83.26,26.48,83.26,80.13v23.33h-129.23v2.44c0,30.66,15.67,45.28,41.81,45.28h4.18c25.09,0,37.63-10.44,41.81-27.87h39.37c-4.18,37.63-32.05,60.27-81.16,60.27h-4.18c-47.73,0-83.26-26.12-83.26-79.42v-24.04c0-53.65,35.53-80.13,83.26-80.13h4.14Zm-45.97,72.45h87.78c-1.05-26.12-17.77-40.05-42.15-40.05h-4.18c-25.43,0-40.4,13.57-41.45,40.05Z"/>
    <path class="cls-1" d="m500.95,81.16v21.25h6.97c10.1-15.67,27.51-24.74,49.47-24.74h4.18c34.48,0,59.22,21.59,59.22,69.66v110.42h-42.84v-102.77c0-27.17-13.59-40.42-36.24-40.42h-4.18c-22.98,0-36.58,13.23-36.58,40.42v102.77h-42.84V81.13h42.84v.02Z"/>
    <path class="cls-1" d="m813.07,0v257.77h-42.84v-20.56h-6.97c-11.84,16.38-29.61,24.04-50.86,24.04h-4.18c-39.71,0-67.58-25.43-67.58-79.76v-24.04c0-53.99,27.87-79.76,67.58-79.76h4.18c21.25,0,39.02,8.02,50.86,23.69h6.97V0h42.84Zm-129.57,157.1v24.74c0,29.27,15.33,44.94,41.45,44.94h3.84c26.14,0,41.45-15.67,41.45-44.94v-24.74c0-28.9-14.99-44.94-41.45-44.94h-3.84c-26.14,0-41.45,16.04-41.45,44.94Z"/>
    <path class="cls-1" d="m923.15,77.68c48.41,0,83.94,26.82,83.94,79.76v24.04c0,53.65-35.53,79.76-83.94,79.76h-4.18c-48.78,0-84.31-26.12-84.31-79.76v-24.04c0-52.96,35.53-79.76,84.31-79.76h4.18Zm-45.63,79.42v24.74c0,28.9,13.94,44.94,41.45,44.94h4.18c27.17,0,41.1-16.02,41.1-44.94v-24.74c0-28.56-13.94-44.94-41.1-44.94h-4.18c-27.17,0-41.45,16.38-41.45,44.94Z"/>
    <path class="cls-1" d="m1129.74,20.91c58.17,0,95.43,30.66,95.43,89.88v3.84h-44.23v-3.84c-.34-34.84-19.51-51.54-51.54-51.54h-6.26c-31.69,0-52.25,17.41-52.25,54.7v53.65c0,39.02,20.56,55.38,52.25,55.38h6.63c31.69,0,52.25-16.02,52.25-52.25v-2.44h44.6v2.44c0,61.3-38.32,90.57-96.83,90.57h-6.63c-57.83,0-96.85-29.61-96.85-93.7v-53.65c0-61.67,39.02-93.01,96.85-93.01h6.58v-.02Z"/>
    <path class="cls-1" d="m1324.47,77.68c50.86,0,75.58,23.69,75.58,63.74v116.34h-42.5v-20.56h-6.97c-12.89,16.72-28.92,24.04-52.96,24.04-31.35,0-57.48-16.02-57.48-53.65,0-33.08,21.59-53.3,71.06-53.3h46.33v-12.89c0-21.96-12.54-31-33.08-31h-4.18c-18.12,0-33.08,9.05-33.08,30.66h-41.81c0-39.71,26.12-63.4,74.89-63.4h4.2v.02Zm-42.15,126.78c0,14.99,10.44,23.33,30.3,23.33,24.04,0,44.94-11.15,44.94-41.45v-5.23h-42.84c-22.98.02-32.4,8.38-32.4,23.35Z"/>
    <path class="cls-1" d="m1466.24,81.16v21.25h6.97c10.1-15.67,27.51-24.74,49.47-24.74h4.18c34.48,0,59.22,21.59,59.22,69.66v110.42h-42.84v-102.77c0-27.17-13.59-40.42-36.24-40.42h-4.18c-22.98,0-36.58,13.23-36.58,40.42v102.77h-42.84V81.13h42.84v.02Z"/>
    <path class="cls-1" d="m1652.26,81.16v21.25h6.97c10.1-15.67,27.51-24.74,49.47-24.74h4.18c34.48,0,59.22,21.59,59.22,69.66v110.42h-42.84v-102.77c0-27.17-13.59-40.42-36.24-40.42h-4.18c-22.98,0-36.58,13.23-36.58,40.42v102.77h-42.84V81.13h42.84v.02Z"/>
  </g>
  <g>
    <path class="cls-1" d="m321.96,338.94c-1.93,7.63-7.61,13.27-17.82,13.27-13.34,0-19.98-9.99-19.98-22.47s6.69-22.83,20.26-22.83c10.66,0,16.32,6.11,17.56,13.49h-6.54c-1.46-4.55-4.48-8.13-11.28-8.13-9.37,0-13.16,8.51-13.16,17.26s3.56,17.3,13.42,17.3c6.69,0,9.48-3.95,10.98-7.91h6.56v.02Z"/>
    <path class="cls-1" d="m366.77,329.38c0,12.16-6.9,22.92-20.88,22.92-13.14,0-20.39-10.03-20.39-22.69s7.5-22.69,20.93-22.69c12.5,0,20.35,9.26,20.35,22.45Zm-34.46.04c0,9.37,4.67,17.37,13.83,17.37,9.91,0,13.79-8.19,13.79-17.3s-4.4-17.05-13.81-17.05-13.81,7.72-13.81,16.98Z"/>
    <path class="cls-1" d="m372.99,351.66v-44.1h8.51c6.17,10.23,19.25,31.39,21.63,36.19h.09c-.43-5.47-.41-12.54-.41-19.77v-16.45h6.11v44.1h-8.02c-5.62-9.39-19.38-32.42-22.04-37.39h-.09c.32,4.8.34,12.59.34,20.52v16.85h-6.13v.04Z"/>
    <path class="cls-1" d="m453.85,351.66h-4.97c-.32-.94-.49-2.83-.58-5.66-2.02,3.17-5.92,6.28-13.55,6.28-12.74,0-19.58-9.65-19.58-22.21,0-13.21,7.33-23.16,20.75-23.16,10.46,0,16.96,5.7,18.18,13.53h-6.54c-1.39-4.55-4.7-8.15-11.75-8.15-10.01,0-13.81,8.06-13.81,17.47,0,8.81,3.88,17.09,13.62,17.09s11.84-6.41,11.84-13.19v-.45h-11.9v-5.55h18.29v23.99Z"/>
    <path class="cls-1" d="m468.06,332.58v19.08h-6.48v-44.1h17.65c9.18,0,14.07,5,14.07,11.86,0,5.77-3.28,9.2-7.31,10.38,3.32.94,6.5,3.54,6.5,11.24v1.95c0,3.02-.11,6.78.6,8.66h-6.33c-.79-1.91-.77-5.32-.77-9.56v-.88c0-6-1.67-8.64-9.43-8.64h-8.49v.02Zm0-5.42h9.28c6.45,0,9.24-2.42,9.24-7.14s-2.92-7.01-8.66-7.01h-9.86v14.15Z"/>
    <path class="cls-1" d="m528.33,331.35h-21.78v14.77h23.93l-.81,5.53h-29.5v-44.1h29.2v5.53h-22.81v12.71h21.78v5.55h0Z"/>
    <path class="cls-1" d="m539.44,339.26c1.16,5.12,4.7,7.8,10.85,7.8,6.54,0,9.16-3,9.16-6.99,0-4.27-2.17-6.56-10.76-8.64-10.7-2.57-14.19-6.28-14.19-12.44,0-6.78,5-12.09,14.97-12.09,10.74,0,15.12,6.11,15.72,12.03h-6.65c-.73-3.69-3-6.86-9.28-6.86-5.08,0-7.98,2.27-7.98,6.26s2.38,5.49,9.99,7.33c12.63,3.07,14.97,7.93,14.97,13.7,0,7.29-5.42,12.86-16.38,12.86s-16.1-5.96-17.05-12.97h6.65Z"/>
    <path class="cls-1" d="m611.05,329.38c0,12.16-6.9,22.92-20.88,22.92-13.14,0-20.39-10.03-20.39-22.69s7.5-22.69,20.93-22.69c12.5,0,20.35,9.26,20.35,22.45Zm-34.43.04c0,9.37,4.67,17.37,13.83,17.37,9.91,0,13.79-8.19,13.79-17.3s-4.4-17.05-13.81-17.05-13.81,7.72-13.81,16.98Z"/>
    <path class="cls-1" d="m668,333.3c0-8.06.09-16.42.28-21.12h-.26c-1.93,7.5-8.56,25.62-13.44,39.49h-5.79c-3.71-11.43-10.57-31.82-12.54-39.58h-.21c.34,5.1.49,14.77.49,22.32v17.26h-6.11v-44.1h9.76c4.72,13.27,10.4,30.34,11.88,36.13h.11c1.05-4.55,7.83-23.18,12.71-36.13h9.48v44.1h-6.37v-18.37h.02Z"/>
    <path class="cls-1" d="m711.46,331.35h-21.78v14.77h23.93l-.81,5.53h-29.5v-44.1h29.2v5.53h-22.81v12.71h21.78v5.55h0Z"/>
    <path class="cls-1" d="m718.6,351.66v-44.1h8.51c6.17,10.23,19.25,31.39,21.63,36.19h.09c-.43-5.47-.41-12.54-.41-19.77v-16.45h6.11v44.1h-8.02c-5.62-9.39-19.38-32.42-22.04-37.39h-.09c.32,4.8.34,12.59.34,20.52v16.85h-6.13v.04Z"/>
    <path class="cls-1" d="m763.5,307.55h16.08c12.48,0,20.86,8.45,20.86,21.59s-8.17,22.51-21.1,22.51h-15.84v-44.1Zm6.54,38.64h8.85c10.01,0,14.73-7.23,14.73-16.94,0-8.43-4.31-16.21-14.71-16.21h-8.88v33.15Z"/>
    <path class="cls-1" d="m845.56,329.38c0,12.16-6.9,22.92-20.88,22.92-13.14,0-20.39-10.03-20.39-22.69s7.5-22.69,20.93-22.69c12.52,0,20.35,9.26,20.35,22.45Zm-34.43.04c0,9.37,4.67,17.37,13.83,17.37,9.91,0,13.79-8.19,13.79-17.3s-4.4-17.05-13.81-17.05-13.81,7.72-13.81,16.98Z"/>
    <path class="cls-1" d="m887.2,338.94c-1.93,7.63-7.61,13.27-17.82,13.27-13.34,0-19.98-9.99-19.98-22.47s6.69-22.83,20.26-22.83c10.66,0,16.32,6.11,17.56,13.49h-6.54c-1.46-4.55-4.48-8.13-11.28-8.13-9.37,0-13.16,8.51-13.16,17.26s3.56,17.3,13.42,17.3c6.69,0,9.48-3.95,10.98-7.91h6.56v.02Z"/>
    <path class="cls-1" d="m899.38,307.55v44.1h-6.54v-44.1h6.54Z"/>
    <path class="cls-1" d="m908.34,351.66v-44.1h8.51c6.17,10.23,19.25,31.39,21.63,36.19h.09c-.43-5.47-.41-12.54-.41-19.77v-16.45h6.11v44.1h-8.02c-5.62-9.39-19.38-32.42-22.04-37.39h-.09c.32,4.8.34,12.59.34,20.52v16.85h-6.13v.04Z"/>
    <path class="cls-1" d="m991.79,329.38c0,12.16-6.9,22.92-20.88,22.92-13.14,0-20.39-10.03-20.39-22.69s7.5-22.69,20.93-22.69c12.5,0,20.35,9.26,20.35,22.45Zm-34.46.04c0,9.37,4.67,17.37,13.83,17.37,9.91,0,13.79-8.19,13.79-17.3s-4.4-17.05-13.81-17.05-13.81,7.72-13.81,16.98Z"/>
    <path class="cls-1" d="m1011.17,307.55h16.08c12.48,0,20.86,8.45,20.86,21.59s-8.17,22.51-21.1,22.51h-15.84v-44.1Zm6.54,38.64h8.85c10.01,0,14.73-7.23,14.73-16.94,0-8.43-4.31-16.21-14.71-16.21h-8.88v33.15Z"/>
    <path class="cls-1" d="m1082.53,331.35h-21.78v14.77h23.93l-.81,5.53h-29.5v-44.1h29.2v5.53h-22.81v12.71h21.78v5.55h0Z"/>
    <path class="cls-1" d="m1089.67,307.55h6.54v38.57h22.81l-.86,5.53h-28.5v-44.1Z"/>
    <path class="cls-1" d="m1171.38,338.94c-1.93,7.63-7.61,13.27-17.82,13.27-13.34,0-19.98-9.99-19.98-22.47s6.69-22.83,20.26-22.83c10.66,0,16.32,6.11,17.56,13.49h-6.54c-1.46-4.55-4.48-8.13-11.28-8.13-9.37,0-13.16,8.51-13.16,17.26s3.56,17.3,13.42,17.3c6.69,0,9.48-3.95,10.98-7.91h6.56v.02Z"/>
    <path class="cls-1" d="m1183.21,339.01l-4.5,12.65h-6.5l15.57-44.1h8.1l16.23,44.1h-6.95l-4.65-12.65h-17.3Zm15.7-5.53c-4.01-11.15-6.26-17.28-7.23-20.75h-.06c-1.07,3.86-3.6,11.21-6.82,20.75h14.11Z"/>
    <path class="cls-1" d="m1216.02,351.66v-44.1h8.51c6.17,10.23,19.25,31.39,21.63,36.19h.09c-.43-5.47-.41-12.54-.41-19.77v-16.45h6.11v44.1h-8.02c-5.62-9.39-19.38-32.42-22.04-37.39h-.09c.32,4.8.34,12.59.34,20.52v16.85h-6.13v.04Z"/>
    <path class="cls-1" d="m1260.92,351.66v-44.1h8.51c6.17,10.23,19.25,31.39,21.63,36.19h.09c-.43-5.47-.41-12.54-.41-19.77v-16.45h6.11v44.1h-8.02c-5.62-9.39-19.38-32.42-22.04-37.39h-.09c.32,4.8.34,12.59.34,20.52v16.85h-6.13v.04Z"/>
    <path class="cls-1" d="m1312.08,339.01l-4.5,12.65h-6.5l15.57-44.1h8.1l16.23,44.1h-6.95l-4.65-12.65h-17.3Zm15.72-5.53c-4.01-11.15-6.26-17.28-7.23-20.75h-.06c-1.07,3.86-3.6,11.21-6.82,20.75h14.11Z"/>
    <path class="cls-1" d="m1344.88,307.55h17.37c9.58,0,13.85,5.04,13.85,11.06,0,5.1-2.89,8.4-6.2,9.61,3.07,1.01,7.61,4.12,7.61,10.46,0,8.17-6.26,12.97-14.82,12.97h-17.82v-44.1h0Zm16.27,18.16c6.05,0,8.4-2.42,8.4-6.5,0-3.77-2.72-6.35-7.63-6.35h-10.61v12.84h9.84Zm-9.84,20.65h10.46c5.47,0,9.03-2.51,9.03-7.72,0-4.55-2.92-7.59-9.95-7.59h-9.54v15.31Z"/>
    <path class="cls-1" d="m1390.06,307.55v44.1h-6.54v-44.1h6.54Z"/>
    <path class="cls-1" d="m1402.02,339.26c1.16,5.12,4.7,7.8,10.85,7.8,6.54,0,9.16-3,9.16-6.99,0-4.27-2.17-6.56-10.76-8.64-10.7-2.57-14.19-6.28-14.19-12.44,0-6.78,5-12.09,14.97-12.09,10.72,0,15.12,6.11,15.72,12.03h-6.65c-.73-3.69-3-6.86-9.28-6.86-5.08,0-7.98,2.27-7.98,6.26s2.38,5.49,9.99,7.33c12.63,3.07,14.97,7.93,14.97,13.7,0,7.29-5.42,12.86-16.38,12.86s-16.1-5.96-17.05-12.97h6.65Z"/>
    <path class="cls-1" d="m1444.9,351.66v-.39c0-6.28,3.84-12.46,12.54-19,6.54-4.95,8.36-6.56,8.36-11,0-4.07-2.14-7.03-6.86-7.03s-7.08,2.62-7.91,7.44h-6.09c.71-7.1,5.27-12.56,14-12.56,9.63,0,13.27,6.09,13.27,12.03,0,6.28-2.68,8.83-10.4,14.71-5.64,4.29-8.51,7.46-9.5,10.4h21.53l-.86,5.42h-28.09v-.02Z"/>
    <path class="cls-1" d="m1506.2,330.47c0,10.57-3.09,21.93-14.9,21.93s-14.86-10.7-14.86-21.66,3.58-21.66,15.05-21.66c11.3.02,14.71,10.46,14.71,21.38Zm-23.2.28c0,7.89,1.29,16.47,8.36,16.47s8.28-8.13,8.28-16.7c0-8.06-1.31-16.19-8.13-16.19-6.9,0-8.51,7.27-8.51,16.42Z"/>
    <path class="cls-1" d="m1509.42,351.66v-.39c0-6.28,3.84-12.46,12.54-19,6.54-4.95,8.36-6.56,8.36-11,0-4.07-2.14-7.03-6.86-7.03s-7.08,2.62-7.91,7.44h-6.09c.71-7.1,5.27-12.56,14-12.56,9.63,0,13.27,6.09,13.27,12.03,0,6.28-2.68,8.83-10.4,14.71-5.64,4.29-8.51,7.46-9.5,10.4h21.53l-.86,5.42h-28.09v-.02Z"/>
    <path class="cls-1" d="m1558.65,351.66v-10.51h-19.49v-5.6l18.72-25.69h6.71v26.01h5.34l-.64,5.27h-4.7v10.51h-5.94Zm0-25.71c0-3.47.04-7.29.15-10.01-1.69,3.28-9.33,13.81-13.68,19.96h13.53v-9.95h0Z"/>
    <path class="cls-1" d="m505.18,402.47c-1.93,7.63-7.61,13.27-17.82,13.27-13.34,0-19.98-9.99-19.98-22.47s6.69-22.83,20.26-22.83c10.66,0,16.32,6.11,17.56,13.49h-6.54c-1.46-4.55-4.48-8.13-11.28-8.13-9.37,0-13.16,8.51-13.16,17.26s3.56,17.3,13.42,17.3c6.69,0,9.48-3.95,10.98-7.91h6.56v.02Z"/>
    <path class="cls-1" d="m516.93,371.08v26.5c0,10.06,5.45,12.82,10.94,12.82,6.39,0,10.83-3.02,10.83-12.82v-26.5h6.58v26.16c0,14.45-8.08,18.5-17.52,18.5s-17.43-4.35-17.43-18.14v-26.52h6.6Z"/>
    <path class="cls-1" d="m553.74,371.08h6.54v38.57h22.81l-.86,5.53h-28.5v-44.1Z"/>
    <path class="cls-1" d="m589.08,376.62h-14.09v-5.53h34.76v5.53h-14.09v38.57h-6.58v-38.57h0Z"/>
    <path class="cls-1" d="m619.74,371.08v44.1h-6.54v-44.1h6.54Z"/>
    <path class="cls-1" d="m639.21,415.19l-15.95-44.1h7.03l7.55,21.68c2.21,6.41,4.35,12.69,5.34,16.81h.13c.92-3.71,3.28-10.25,5.55-16.62l7.85-21.89h6.73l-16.49,44.1h-7.74v.02Z"/>
    <path class="cls-1" d="m705.35,392.91c0,12.16-6.9,22.92-20.88,22.92-13.14,0-20.39-10.03-20.39-22.69s7.5-22.69,20.93-22.69c12.5-.02,20.35,9.26,20.35,22.45Zm-34.46.02c0,9.35,4.67,17.37,13.83,17.37,9.91,0,13.79-8.19,13.79-17.3s-4.4-17.05-13.81-17.05-13.81,7.74-13.81,16.98Z"/>
    <path class="cls-1" d="m704.47,422.48c3.41-7.35,4.25-12.89,4.57-16.98h6.35c-.56,5.79-2.62,12.46-5.9,16.98h-5.02Z"/>
    <path class="cls-1" d="m740.86,371.08v44.1h-6.54v-44.1h6.54Z"/>
    <path class="cls-1" d="m749.82,415.19v-44.1h8.51c6.17,10.23,19.25,31.39,21.63,36.19h.09c-.43-5.47-.41-12.54-.41-19.77v-16.45h6.11v44.1h-8.02c-5.62-9.39-19.38-32.42-22.04-37.39h-.09c.32,4.8.34,12.59.34,20.52v16.85h-6.13v.04Z"/>
    <path class="cls-1" d="m794.72,371.08h16.08c12.48,0,20.86,8.45,20.86,21.59s-8.17,22.51-21.1,22.51h-15.84v-44.1Zm6.56,38.62h8.85c10.01,0,14.73-7.23,14.73-16.94,0-8.43-4.31-16.21-14.71-16.21h-8.88v33.15Z"/>
    <path class="cls-1" d="m844.29,371.08v26.5c0,10.06,5.45,12.82,10.94,12.82,6.39,0,10.83-3.02,10.83-12.82v-26.5h6.58v26.16c0,14.45-8.08,18.5-17.52,18.5s-17.43-4.35-17.43-18.14v-26.52h6.6Z"/>
    <path class="cls-1" d="m883.49,402.8c1.16,5.12,4.7,7.8,10.85,7.8,6.54,0,9.16-3,9.16-6.99,0-4.27-2.17-6.56-10.76-8.64-10.7-2.57-14.19-6.28-14.19-12.44,0-6.78,5-12.09,14.97-12.09,10.74,0,15.12,6.11,15.72,12.03h-6.65c-.73-3.69-3-6.86-9.28-6.86-5.08,0-7.98,2.27-7.98,6.26s2.38,5.49,9.99,7.33c12.63,3.07,14.97,7.93,14.97,13.7,0,7.29-5.42,12.86-16.38,12.86s-16.1-5.96-17.05-12.97h6.65Z"/>
    <path class="cls-1" d="m924.83,376.62h-14.09v-5.53h34.76v5.53h-14.09v38.57h-6.58v-38.57h0Z"/>
    <path class="cls-1" d="m955.42,396.08v19.08h-6.48v-44.1h17.65c9.18,0,14.07,5,14.07,11.86,0,5.77-3.28,9.2-7.31,10.38,3.32.94,6.5,3.54,6.5,11.24v1.95c0,3.02-.11,6.78.6,8.66h-6.33c-.79-1.91-.77-5.32-.77-9.56v-.88c0-6-1.67-8.64-9.43-8.64h-8.49v.02Zm0-5.42h9.28c6.45,0,9.24-2.42,9.24-7.14s-2.92-7.01-8.66-7.01h-9.86v14.15Z"/>
    <path class="cls-1" d="m994.06,371.08v44.1h-6.54v-44.1h6.54Z"/>
    <path class="cls-1" d="m1009.26,402.54l-4.5,12.65h-6.5l15.57-44.1h8.1l16.23,44.1h-6.95l-4.65-12.65h-17.3Zm15.72-5.55c-4.01-11.15-6.26-17.28-7.23-20.75h-.06c-1.07,3.86-3.6,11.21-6.82,20.75h14.11Z"/>
    <path class="cls-1" d="m1065.14,415.19v-16.06c0-.43-.11-.88-.32-1.22l-15.48-26.82h7.46c3.9,7.08,9.91,17.97,11.96,22.02,1.91-3.97,8.15-15.03,12.18-22.02h6.95l-15.91,26.87c-.15.28-.28.51-.28,1.18v16.06h-6.56Z"/>
    <path class="cls-1" d="m1141.17,396.81c0-8.06.09-16.42.28-21.12h-.26c-1.93,7.5-8.56,25.62-13.44,39.49h-5.79c-3.71-11.43-10.57-31.82-12.54-39.58h-.21c.34,5.1.49,14.77.49,22.32v17.26h-6.11v-44.1h9.76c4.72,13.27,10.4,30.34,11.88,36.13h.11c1.05-4.55,7.83-23.18,12.71-36.13h9.48v44.1h-6.37v-18.37h.02Z"/>
    <path class="cls-1" d="m1184.65,394.86h-21.78v14.77h23.93l-.81,5.53h-29.5v-44.1h29.2v5.53h-22.81v12.71h21.78v5.55h0Z"/>
    <path class="cls-1" d="m1191.77,371.08h16.08c12.48,0,20.86,8.45,20.86,21.59s-8.17,22.51-21.1,22.51h-15.84v-44.1Zm6.56,38.62h8.85c10.01,0,14.73-7.23,14.73-16.94,0-8.43-4.31-16.21-14.71-16.21h-8.88v33.15Z"/>
    <path class="cls-1" d="m1241.51,371.08v44.1h-6.54v-44.1h6.54Z"/>
    <path class="cls-1" d="m1285.55,402.47c-1.93,7.63-7.61,13.27-17.82,13.27-13.34,0-19.98-9.99-19.98-22.47s6.69-22.83,20.26-22.83c10.66,0,16.32,6.11,17.56,13.49h-6.54c-1.46-4.55-4.48-8.13-11.28-8.13-9.37,0-13.16,8.51-13.16,17.26s3.56,17.3,13.42,17.3c6.69,0,9.48-3.95,10.98-7.91h6.56v.02Z"/>
    <path class="cls-1" d="m1297.73,371.08v44.1h-6.54v-44.1h6.54Z"/>
    <path class="cls-1" d="m1306.69,415.19v-44.1h8.51c6.17,10.23,19.25,31.39,21.63,36.19h.09c-.43-5.47-.41-12.54-.41-19.77v-16.45h6.11v44.1h-8.02c-5.62-9.39-19.38-32.42-22.04-37.39h-.09c.32,4.8.34,12.59.34,20.52v16.85h-6.13v.04Z"/>
    <path class="cls-1" d="m1357.85,402.54l-4.5,12.65h-6.5l15.57-44.1h8.1l16.23,44.1h-6.95l-4.65-12.65h-17.3Zm15.72-5.55c-4.01-11.15-6.26-17.28-7.23-20.75h-.06c-1.07,3.86-3.6,11.21-6.82,20.75h14.11Z"/>
  </g>
  <path class="cls-1" d="m1884.49,174.4c2.96-1.16,5.9-2.74,8.53-4.91,18.27-14.94,26.97-19.51,26.97-19.51,0,0-19.34,2.17-33.64,8.88-9.54,4.48-16.94,11.15-20.82,15.09-.11.09-.24.19-.34.28-.04.04-.13.04-.26.06-.02-.15-.09-.32-.02-.41.09-.13.17-.28.26-.41,4.44-4.67,16.4-17.9,26.67-34.82,12.89-21.23,14.86-43.46,14.86-43.46,0,0-15.22,14.17-28.11,35.42-9.03,14.88-12.89,30.88-14.37,39.11-.09.36-.19.71-.28,1.07-.28,1.03-.56,2.04-.81,3.07-.06.21-.02.45-.32.51s-.47-.11-.45-.49c.04-.62.09-1.22.09-1.84,1.72-6.3,6.71-26.44,7.78-49.49,1.31-27.9-6.71-48.91-6.71-48.91,0,0-9.41,20.2-10.72,48.11-.99,20.99,4.63,40.01,7.48,48.16.15.86.28,1.69.43,2.55.06.34.17.66.21,1.01.02.21-.02.45-.04.66l-.19.06c-.15-.17-.3-.34-.41-.54-.09-.15-.06-.34-.13-.49-.32-.69-.64-1.37-.99-2.06-1.69-7.74-6.26-24.38-16.49-39.52-13.89-20.58-33.96-33.04-33.96-33.04,0,0,7.23,21.12,21.12,41.7,11.41,16.92,24.44,29.85,28.73,33.92.04.15.04.34-.02.54-.24-.17-.43-.3-.6-.45-.13-.11-.26-.21-.36-.32-3.88-3.95-11.26-10.59-20.78-15.05-14.32-6.71-39.69-8.04-39.69-8.04,0,0,4.97.84,23.24,15.78,4.65,3.82,11.6,6.26,18.42,7.83-.19.02-.39.04-.56.06-6.93.77-17.05,11.88-18.5,13.49.75-.64,4.61-2.64,23.89-4.35,5.4-.47,9.78-2.34,12.74-3.99.3-.11.6-.19.88-.28.86-.26,1.69-.56,2.36-1.16.13-.11.28-.21.43-.28.11-.04.24.04.43.09-.17.24-.28.39-.39.54-.47.62-.94,1.2-1.37,1.84-.54.77-1.03,1.57-1.5,2.38-.21.36-.41.75-.56,1.14-.24.58-.43,1.16-.62,1.74-.17.47-.34.92-.47,1.39-.15.54-.21,1.09-.51,1.61-.21.39-.32.88-.36,1.35-.13,1.24-.21,2.51-.3,3.77-.02.45,0,.9.02,1.33,0,.15.11.28.19.49.15-.17.24-.26.28-.36.36-.75.71-1.52,1.07-2.29.66-1.37,1.33-2.77,2.04-4.12.6-1.14,1.22-2.25,1.63-3.49.47-1.46,1.01-2.89,1.54-4.33.11-.28.26-.54.45-.75.26-.32.77-.3.96.04.24.41.49.81.6,1.27.41,1.67,1.16,3.19,1.97,4.7.11.19.19.41.26.6.3.81.47,1.65.94,2.4.28.45.47.99.64,1.5.36,1.24.69,2.51,1.03,3.77.02.11.11.21.21.45.21-.56.39-.99.56-1.39.28-.66.43-1.35.43-2.1,0-1.39-.17-2.74-.41-4.12-.26-1.48-1.03-2.74-1.69-4.01-.73-1.33-1.74-2.51-2.64-3.75-.28-.39-.58-.75-.84-1.14-.06-.09-.09-.32-.02-.39.04-.04.15-.06.24-.06,1.39,1.29,4.37,3.3,10.48,5.19,9.99,3.09,31.13-4.57,31.13-4.57,0,0-12.86-3.32-20.35-4.16-.17-.07-.39-.09-.6-.11Z"/>
</svg>