<?xml version="1.0" encoding="utf-8"?>
<!-- Generator: Adobe Illustrator 27.9.0, SVG Export Plug-In . SVG Version: 6.00 Build 0)  -->
<svg version="1.1" id="Capa_1" xmlns="http://www.w3.org/2000/svg" xmlns:xlink="http://www.w3.org/1999/xlink" x="0px" y="0px"
	 viewBox="0 0 1920 261.5" style="enable-background:new 0 0 1920 261.5;" xml:space="preserve">
<style type="text/css">
	.st0{fill:#95B141;}
</style>
<path class="st0" d="M72.5,24.4l46.7,119.8h7.3l47-119.8h69v233.4h-43.9V75.9h-8l-46,118.1H95.4L49.1,75.6h-7.7v182.2H0V24.4H72.5z"
	/>
<path class="st0" d="M353.3,77.7c48.1,0,83.3,26.5,83.3,80.1v23.3H307.3v2.4c0,30.7,15.7,45.3,41.8,45.3h4.2
	c25.1,0,37.6-10.4,41.8-27.9h39.4c-4.2,37.6-32,60.3-81.2,60.3h-4.2c-47.7,0-83.3-26.1-83.3-79.4v-24c0-53.6,35.5-80.1,83.3-80.1
	L353.3,77.7z M307.3,150.1h87.8c-1-26.1-17.8-40.1-42.1-40.1h-4.2C323.3,110.1,308.3,123.6,307.3,150.1L307.3,150.1z"/>
<path class="st0" d="M501,81.2v21.2h7c10.1-15.7,27.5-24.7,49.5-24.7h4.2c34.5,0,59.2,21.6,59.2,69.7v110.4H578V155
	c0-27.2-13.6-40.4-36.2-40.4h-4.2c-23,0-36.6,13.2-36.6,40.4v102.8h-42.8V81.1L501,81.2z"/>
<path class="st0" d="M813.1,0v257.8h-42.8v-20.6h-7c-11.8,16.4-29.6,24-50.9,24h-4.2c-39.7,0-67.6-25.4-67.6-79.8v-24
	c0-54,27.9-79.8,67.6-79.8h4.2c21.2,0,39,8,50.9,23.7h7V0H813.1z M683.5,157.1v24.7c0,29.3,15.3,44.9,41.5,44.9h3.8
	c26.1,0,41.5-15.7,41.5-44.9v-24.7c0-28.9-15-44.9-41.5-44.9H725C698.8,112.2,683.5,128.2,683.5,157.1z"/>
<path class="st0" d="M923.2,77.7c48.4,0,83.9,26.8,83.9,79.8v24c0,53.6-35.5,79.8-83.9,79.8H919c-48.8,0-84.3-26.1-84.3-79.8v-24
	c0-53,35.5-79.8,84.3-79.8L923.2,77.7z M877.5,157.1v24.7c0,28.9,13.9,44.9,41.5,44.9h4.2c27.2,0,41.1-16,41.1-44.9v-24.7
	c0-28.6-13.9-44.9-41.1-44.9H919C891.8,112.2,877.5,128.5,877.5,157.1L877.5,157.1z"/>
<path class="st0" d="M1129.7,20.9c58.2,0,95.4,30.7,95.4,89.9v3.8h-44.2v-3.8c-0.3-34.8-19.5-51.5-51.5-51.5h-6.3
	c-31.7,0-52.2,17.4-52.2,54.7v53.7c0,39,20.6,55.4,52.2,55.4h6.6c31.7,0,52.2-16,52.2-52.2v-2.4h44.6v2.4
	c0,61.3-38.3,90.6-96.8,90.6h-6.6c-57.8,0-96.8-29.6-96.8-93.7v-53.7c0-61.7,39-93,96.8-93L1129.7,20.9L1129.7,20.9z"/>
<path class="st0" d="M1324.5,77.7c50.9,0,75.6,23.7,75.6,63.7v116.3h-42.5v-20.6h-7c-12.9,16.7-28.9,24-53,24
	c-31.3,0-57.5-16-57.5-53.6c0-33.1,21.6-53.3,71.1-53.3h46.3v-12.8c0-22-12.5-31-33.1-31h-4.2c-18.1,0-33.1,9.1-33.1,30.7h-41.8
	c0-39.7,26.1-63.4,74.9-63.4L1324.5,77.7z M1282.3,204.4c0,15,10.4,23.3,30.3,23.3c24,0,44.9-11.2,44.9-41.5V181h-42.8
	C1291.7,181.1,1282.3,189.5,1282.3,204.4L1282.3,204.4z"/>
<path class="st0" d="M1466.2,81.2v21.2h7c10.1-15.7,27.5-24.7,49.5-24.7h4.2c34.5,0,59.2,21.6,59.2,69.7v110.4h-42.8V155
	c0-27.2-13.6-40.4-36.2-40.4h-4.2c-23,0-36.6,13.2-36.6,40.4v102.8h-42.8V81.1L1466.2,81.2L1466.2,81.2z"/>
<path class="st0" d="M1652.3,81.2v21.2h7c10.1-15.7,27.5-24.7,49.5-24.7h4.2c34.5,0,59.2,21.6,59.2,69.7v110.4h-42.8V155
	c0-27.2-13.6-40.4-36.2-40.4h-4.2c-23,0-36.6,13.2-36.6,40.4v102.8h-42.8V81.1L1652.3,81.2L1652.3,81.2z"/>
<path class="st0" d="M1884.5,174.4c3.1-1.2,6-2.8,8.5-4.9c18.3-14.9,27-19.5,27-19.5s-19.3,2.2-33.6,8.9
	c-7.7,3.8-14.8,8.9-20.8,15.1l-0.3,0.3c-0.1,0-0.2,0-0.3,0.1c0-0.1-0.1-0.3,0-0.4c0.1-0.1,0.2-0.3,0.3-0.4
	c10-10.7,19-22.3,26.7-34.8c7.9-13.3,13-28.1,14.9-43.5c-10.8,10.6-20.2,22.5-28.1,35.4c-9,14.9-12.9,30.9-14.4,39.1
	c-0.1,0.4-0.2,0.7-0.3,1.1c-0.3,1-0.6,2.1-0.8,3.1c-0.1,0.2,0,0.4-0.3,0.5s-0.5-0.1-0.4-0.5c0-0.6,0.1-1.2,0.1-1.8
	c4.3-16.2,6.9-32.8,7.8-49.5c0.8-16.6-1.4-33.2-6.7-48.9c0,0-9.4,20.2-10.7,48.1c-1,21,4.6,40,7.5,48.2c0.2,0.9,0.3,1.7,0.4,2.6
	c0.1,0.3,0.2,0.7,0.2,1v0.7l-0.2,0.1c-0.2-0.1-0.3-0.3-0.4-0.5c-0.1-0.1-0.1-0.3-0.1-0.5c-0.3-0.7-0.6-1.4-1-2.1
	c-1.7-7.7-6.3-24.4-16.5-39.5c-13.9-20.6-34-33-34-33c5.4,14.7,12.5,28.7,21.1,41.7c8.4,12.3,18,23.6,28.7,33.9v0.5
	c-0.2-0.2-0.4-0.3-0.6-0.4c-0.1-0.1-0.3-0.2-0.4-0.3c-6-6.2-13.1-11.3-20.8-15.1c-14.3-6.7-39.7-8-39.7-8s5,0.8,23.2,15.8
	c4.7,3.8,11.6,6.3,18.4,7.8c-0.2,0-0.4,0-0.6,0.1c-6.9,0.8-17.1,11.9-18.5,13.5c0.8-0.6,4.6-2.6,23.9-4.3c4.5-0.4,8.8-1.8,12.7-4
	l0.9-0.3c0.9-0.2,1.7-0.6,2.4-1.2c0.1-0.1,0.3-0.2,0.4-0.3c0.1,0,0.3,0,0.4,0.1c-0.2,0.2-0.3,0.4-0.4,0.5c-0.5,0.6-0.9,1.2-1.4,1.8
	l-1.5,2.4c-0.2,0.4-0.4,0.7-0.6,1.1c-0.2,0.6-0.4,1.2-0.6,1.7s-0.3,0.9-0.5,1.4c-0.1,0.5-0.3,1.1-0.5,1.6c-0.2,0.4-0.3,0.9-0.4,1.4
	c-0.1,1.2-0.2,2.5-0.3,3.8v1.3c0,0.2,0.1,0.3,0.2,0.5c0.2-0.2,0.2-0.3,0.3-0.4c0.4-0.8,0.7-1.5,1.1-2.3c0.7-1.4,1.3-2.8,2-4.1
	c0.7-1.1,1.2-2.3,1.6-3.5c0.5-1.5,1-2.9,1.5-4.3c0.1-0.3,0.3-0.5,0.4-0.8c0.2-0.3,0.7-0.3,0.9-0.1c0,0,0,0,0.1,0.1
	c0.3,0.4,0.5,0.8,0.6,1.3c0.5,1.6,1.1,3.2,2,4.7l0.3,0.6c0.2,0.8,0.5,1.6,0.9,2.4c0.3,0.5,0.5,1,0.6,1.5c0.4,1.2,0.7,2.5,1,3.8
	c0,0.1,0.1,0.2,0.2,0.4c0.2-0.5,0.4-0.9,0.6-1.4c0.3-0.7,0.4-1.4,0.4-2.1c0-1.4-0.2-2.7-0.4-4.1c-0.4-1.4-0.9-2.8-1.7-4
	c-0.8-1.3-1.7-2.6-2.6-3.8c-0.3-0.4-0.6-0.8-0.8-1.1c-0.1-0.1-0.1-0.3,0-0.4l0.2-0.1c1.4,1.3,4.4,3.3,10.5,5.2
	c10,3.1,31.1-4.6,31.1-4.6s-12.9-3.3-20.3-4.2C1884.9,174.4,1884.7,174.4,1884.5,174.4L1884.5,174.4z"/>
</svg>
