<svg id="Capa_1" data-name="Capa 1" xmlns="http://www.w3.org/2000/svg" viewBox="0 0 943.32 929.34"><defs><style>.cls-1{fill:#f4f7f0;}</style></defs><title>Hoja</title><path class="cls-1" d="M606,211.25l11.45-4.11c1.24,14-2.15,26.61-8.45,39.21,6.42-.07,7.6-5.6,11.48-8.06,3,6.48,1.47,13.1,1.65,19.52s-2.23,12.13-5.36,17.73l1.5,1,10.49-4.83c1.5,2.57,1.62,6.07.93,9.54A71.1,71.1,0,0,1,618,307.92c-1.36,2-2.59,4-4.39,6.81,6,1.64,9.94-3.28,15.24-2.36,1.61,17.08-4.09,31.72-16.15,45,1.48.29,2.7.95,3.54.62,1.9-.74,3.57-2.07,5.41-3,2.49-1.22,5-2.28,7.59-3.4,3.13,4.46,2.42,9,2,13.13-1.23,11.42-4.86,22-12.54,30.89-1.11,1.28-1.75,3-3.18,5.46a73,73,0,0,0,16.34-2c1.48,2.71-.16,5.07-.94,7.46-2.92,8.94-5.78,17.91-9,26.74-1.07,2.9-3.21,5.41-4.88,8.09-1,1.61-2,3.21-3.62,5.69h17.3c-.36,8.75-3.95,16.85-6.41,25.19S618.68,488.64,611.8,496c2.47.51,3.79,1.06,5.08,1,1.47-.09,2.89-.91,4.36-1.1,3.32-.45,4.69.91,3.8,4.16a59.76,59.76,0,0,1-3.57,9.47c-3.35,7.15-7.26,14-8.94,21.91-.67,3.15-3.06,6-4.7,8.89-.59,1.07-1.26,2.1-2.12,3.53,5.46,2.44,9.31-1,13.92-2.83,0,4.6.67,8.78-.14,12.66-1.76,8.46-4.18,16.78-6.52,25.11-1.09,3.88-1,4.27,4.57,6.57,1.07,10-1.23,19.31-5.48,28.36-1.17,2.49-1.39,5.42-2.46,8-1.21,2.89-3.69,5.45-4.14,8.39-.42,2.71,1.47,5.63-.11,8.64-1.12,2.13-1.36,4.77-2.64,6.75a18.21,18.21,0,0,1-5.14,5c-6.7,4.46-6.63,4.34-4.4,11.71a10.21,10.21,0,0,1-.29,5.91c-2.07,5.95-2.09,7,2.42,10.7,1.76,1.46,2.16,2.8,1.46,4.87-2.19,6.45-4.72,12.73-9.09,18.06-1.77,2.15-2.15,4.37-2.41,7.16-.82,8.7-1.54,17.47-4.86,25.78-1.36,3.41-1.76,7.25-2.29,10.93-.62,4.26-.84,8.48-3.22,12.4a11.54,11.54,0,0,0-1.18,7c1.07,8.3.6,16.54-.05,24.82-.24,3,1,4.2,3.38,3.79s2-2.26,2.42-3.88c2-7.8,4.14-15.56,6.2-23.34,4.37-16.58,9.23-33.06,9.68-50.39.09-3.58-.08-7.17-.08-10.75,0-2.69.3-5.28,3.28-7.38l7.82,5.38c.09-5.12,0-9.35.3-13.56.24-3.34,1.06-6.63,1.46-10,.38-3.17.61-6.36.78-9.55.39-7.24,2-14.05,6.28-20.09a6,6,0,0,0,.79-3.6c-.49-7-.54-7,6.54-8.15a1.51,1.51,0,0,0,.66-.38c2.75-13.22,4.11-26.52,9-39,1.34-3.43,1.25-3.46,4.77-6.35.84.48,1.78,1,2.73,1.57.76.42,1.54.8,3,1.57-2.14-16,2.72-29.87,8.36-43.6.74-1.8,2.24-3.29,3.68-5.34l6.28,4.56c-.09-21,5-41.61,11.84-47.53l6.06,4c.42-17.7,6.16-33.13,13.74-49l13.56,12.47c0-5.13,0-9.35,0-13.57,0-1.5-.22-3.15.29-4.49,3.91-10.17,5.32-21.24,10.87-30.82,1.77-3.05,3.68-6,6-9.78,2.45,2.26,4.34,4.23,6.48,5.87a7.53,7.53,0,0,0,4.31,1.81c.66,0,1.35-2.3,1.87-3.61,1.53-3.83,2.73-7.82,4.53-11.51,2.81-5.75,6.07-11.27,9-17a33.57,33.57,0,0,0,2.11-5.81c1.23-4.07,2.57-6.05,6.86-9.37l11.2,11.29c1.15-5.7,1.69-10.47,3.13-14.95a107.86,107.86,0,0,1,5.87-13.39,140.24,140.24,0,0,1,6.79-13c2.53-4.1,4.33-8.85,9.38-12.06l10,10.47a36.17,36.17,0,0,0,1.1-3.78c.9-5.91,3.57-11.1,6.61-16.12,4.1-6.75,8.31-13.43,12.39-20.19.86-1.43,1.25-3.15,2-4.64a77.75,77.75,0,0,1,4.17-7.33c1.83-2.71,4.11-4.64,7.65-1.74a26.07,26.07,0,0,0,2.21-3.51c3.24-7.63,8.65-13.66,14.37-19.42a57,57,0,0,0,9.89-14.26c3.29-6.28,8-11.79,12.15-17.65q8.1-11.55,16.16-23.12a106.49,106.49,0,0,1,17.35-20,8.91,8.91,0,0,1,2.36-.91c1.35,4.17-.52,7.58-1.73,10.86-3.38,9.2-7,18.3-10.75,27.36-3,7.29-4.47,15.14-8.41,22.13-1.78,3.17-2.05,7.15-3.41,10.6-4.3,11-8.49,22-10.91,33.6-1.95,9.36-4.81,18.55-7.44,27.76-.82,2.88-2.26,5.57-3.33,8.39a20.3,20.3,0,0,0-.58,3.08l8.57.52c2.27,8.26-3.62,14.18-5.13,21.15-1.61,7.4-7.28,12.39-11.92,19.38h18.26c.85,4.89-.93,8.53-2.81,11.93-2.82,5.1-6,10-9.27,14.83a72.45,72.45,0,0,1-7.74,10.41c-3.38,3.5-4.54,7.2-3.28,12.32L866,424a78.26,78.26,0,0,1-10.91,16.8c-7.39,9-15.23,17.69-23,26.43-3.31,3.74-2.78,6.32,2.11,7.67,2.66.74,5.51.76,8.43,1.13-.09,4.93-2.74,8.36-5.84,11.4-5.65,5.54-11.62,10.75-17.23,16.33-4.93,4.92-9.52,10.18-14.32,15.23a32.76,32.76,0,0,1-4.21,3.77c-1.87,1.39-3.87,2.63-3,5.42s3,3.6,5.64,3.95a20.69,20.69,0,0,1,5.41,1.32c1.1.46,1.88,1.67,3.19,2.9-1.4,1.62-2.51,3.09-3.8,4.38-7.32,7.36-14.59,14.77-22.07,22-2.56,2.46-5.68,4.33-8.57,6.44-4.08,3-3.89,5.45.64,7.94,1.25.69,2.49,1.4,4.44,2.5-5.47,5.72-10.4,11.08-16,15.79-4.31,3.63-8.73,7.12-13,10.77-2.59,2.2-2.25,5.25.79,6.89,2.12,1.15,4.73,1.6,5.39,4.89-9.45,12.55-23.22,19.5-38.25,26.7l9.63,6.43a25.81,25.81,0,0,1-9.5,8.9c-7.55,4.2-15.32,8-23,11.94-3,1.53-5.84,2.67-6.22,7s-4.08,7.05-7.53,9.41c-4.65,3.18-9.41,6.2-14.11,9.31-3.62,2.39-7.2,4.83-10.84,7.18-5.8,3.75-5.92,4.78-1,9.24.25.23.32.67.17.34-4.46,5.24-8.45,10.45-13,15.16-10.42,10.85-21.19,21.38-31.63,32.22-3.37,3.51-6.12,7.61-9.2,11.41-2.23,2.75-4.6,5.39-6.75,8.2s-4.19,5.7-6.05,8.7c-.43.69.06,2,.15,3.16,1-.23,1.62-.19,2-.5,7.18-5.76,14.11-11.86,21.56-17.26,5.3-3.84,9.47-8.53,13.47-13.56,3.74-4.71,7.79-9.17,11.66-13.78,1.93-2.29,3.78-4.66,6-7.41l3.29,5.69a28.75,28.75,0,0,0,2.12-3c4.75-9.3,11.08-17.51,17.72-25.49a14,14,0,0,1,2-2c1.69-1.32,3.18-1,4.21.86.85,1.51,1.54,3.11,2.45,5,1.07-.9,1.78-1.2,1.84-1.59.73-5.21,4.47-8.56,7.47-12.38,2.22-2.81,4.4-5.64,6.54-8.52,2.71-3.65,6.11-6,11-6.26l1.79,6.23c3.61-2.19,3-6.23,5.18-8.64s4.15-5.4,6.57-7.73a38.81,38.81,0,0,1,7.66-5.78c2.83-1.62,5.45-4.07,9.18-3.9.92,2.1,1.79,4.06,2.85,6.49,10.63-11.59,22-21.07,37-26.67.89,4.16,1.65,7.71,2.56,11.94,9.9-11,22.13-17.51,34.57-23.62,1.36-.67,3.26-.26,5.39-.38.64,3.76,1.22,7.18,2,11.41a31.18,31.18,0,0,1,2.32-2.89c2.17-2,4.12-4.53,6.67-5.84,7-3.59,14.34-6.63,21.49-10,1.52-.71,2.74-2,4.25-2.76,2.13-1,4.39-1.76,7.15-2.84.81,3.76,1.47,6.81,2.22,10.26,4-2.62,7.67-5.35,11.65-7.53s8.5-4,12.81-5.88,7.81-5.3,13.33-5.24c.4,1.67.71,3.27,1.18,4.83,1.35,4.43,4.51,5.25,8.13,2.5a21.84,21.84,0,0,1,7.24-4c15.62-4.18,31.32-8.09,47-12.08a14,14,0,0,1,2.78-.5q20.05-.85,40.12-1.64a9.77,9.77,0,0,1,2.19.59c-3.63,1.66-6.63,3.57-9.91,4.43-13.13,3.47-24.41,10.92-36.11,17.21a114,114,0,0,0-30,23.77,74.29,74.29,0,0,1-8.31,7.64c-5,4-5.18,5.24-1.14,10.54a7.46,7.46,0,0,1,.6,1.42c-3,4.92-7.81,8.19-12.66,11.35-5.65,3.68-11.42,7.18-17,10.9-4.3,2.84-4.58,5.36-1,9.13,1.27,1.32,3.05,2.15,5.34,3.72-2.54,1.81-3.56,2.93-4.82,3.39-8.14,2.92-16.34,5.67-24.5,8.54a17.38,17.38,0,0,0-3,1.84,21.88,21.88,0,0,0,1.28,3.21c2.39,3.93,2.48,4.85-1.61,7a89.19,89.19,0,0,1-24,8,37.88,37.88,0,0,0-4.4,1c-4.91,1.59-5.57,2.85-4.41,7.87.12.53.13,1.09.29,2.44-3.2,1.08-6.43,2.62-9.81,3.23-7,1.26-14.13,2.15-21.23,3-3.92.45-7.89.49-11.84.62-5.51.19-7.07,2.29-5.4,7.49.33,1,.83,2,1.36,3.28-4.84,3.33-10.25,4.16-15.58,5-5.75.89-11.51,1.9-17.38.25-2.37-.67-4.78.13-5,3.11-.21,3.41-2.25,3.73-5,3.94-10.14.77-20.27,1.72-30.4,2.6l-4.26.38c.24,6.36-4.26,6.62-8.74,6.78q-15.55.57-31.1,1c-2.49.07-4.72.27-6.75,2.19a9.11,9.11,0,0,1-5,2c-6.18.66-12.48.56-18.57,1.63-7.76,1.37-15.37,3.59-23,5.45-4.74,1.15-9.46,2.36-14.22,3.43-1.77.4-3.88,0-4.52,2.42,2.78,1.83,9.12,2.94,12.65,2.05,4.39-1.1,8.71-2.48,13.11-3.5,2.45-.57,4.83-2.4,7.59-.74.43.26,1.45-.16,2-.53,7.21-4.46,15.43-4.46,23.44-5.13,1.35-.11,2.84,1.52,5.39,3,5.27-1.69,11.74-4.27,18.46-5.77s13.72-1.93,21-2.88v6.37c1.13-.17,2.14-.25,3.11-.47q6.57-1.54,13.13-3.16c3.65-.91,7.42-1.53,10.89-2.9a28.45,28.45,0,0,1,12.17-1.94c4.54.23,5,.81,4,5.11-.32,1.39-.57,2.8-1.11,5.46C759,799,772.17,799,786,799.62c-.68,2.75-1.24,5-1.94,7.84,1.45-.19,2.64,0,3.45-.5,4.2-2.5,8.74-2,13.24-1.7,3.75.21,7.49.73,11.24.88,6,.25,6,.17,6.57,6,7.06,1.06,14.08,2.09,21.1,3.18,1.67.26,3.3.76,5,1.1q5.76,1.16,11.54,2.26c1.29.25,2.61.37,3.9.61,9,1.67,18.11,3.31,27.15,5.05,5.27,1,10.5,2.19,16.69,3.5a23.64,23.64,0,0,1-3.15,2.24A93.7,93.7,0,0,1,864,837.9c-6.71.1-13.4,1.63-20.09,2.59-9.12,1.31-18.23,2.7-27.35,4-1.7.25-3.66.26-3.93,2.43-.4,3.14-2.66,4-5.13,4.37-5.56.86-11.15,1.56-16.74,2.2a56.48,56.48,0,0,1-6,0c-.5,6.07-4.49,6.71-9.53,6.9-9,.34-18,1.46-27,2.16-2.38.18-4.78,0-8.28,0l3.26,10.29c-2.93,2.91-6.47,2.18-9.69,1.86-8.79-.88-17.59-1.85-26.32-3.23-3.85-.61-7.57-2.21-11.29-3.52-4.54-1.6-6.09-.46-5.34,4.17.36,2.23.8,4.45,1.16,6.68a5.91,5.91,0,0,1-.35,1.51,10,10,0,0,1-3,0c-11.83-3.86-23.35-8.45-34.15-14.76-7.48-4.36-15.32-8.1-22.71-12.59-6.92-4.2-13.51-8.94-20.14-13.59-8-5.62-15.93-11.41-23.9-17.12-.46-.33-1-.82-1.45-.84-1,0-2.45-.18-3,.39a3.1,3.1,0,0,0,.09,2.92c2,3,4.3,5.72,6.4,8.63,6.82,9.48,14.61,18.45,20.11,28.65,5.19,9.62,10.95,19.17,13,30.47a176.27,176.27,0,0,1,3.13,31.39,40.27,40.27,0,0,1-3.32,15.93c-1.37,3.19-2.59,6.45-4.28,10.69a29.36,29.36,0,0,1-1.64-3.48c-2.64-9.58-5.08-19.22-7.9-28.75a45.76,45.76,0,0,0-4.83-11.42c-3.61-5.71-5-12.16-7.22-18.33a33.82,33.82,0,0,0-2-4.61c-6.17-11.46-11.94-23-15.06-35.82-.83-3.39-2.71-6.59-4.51-9.64-1.48-2.53-5.28-2.66-7.32-.27a19.64,19.64,0,0,0-3.39,5.8c-4,11-8.2,21.88-11.72,33-3,9.45-7.85,17.91-12.35,26.62-5.35,10.36-10.37,20.9-15.46,31.4-2.79,5.76-5.41,11.61-8.17,17.4a20.85,20.85,0,0,1-2.16,2.82c-.66-1.66-1.39-2.7-1.45-3.78a86.47,86.47,0,0,1-.11-10.18c.61-9.58,1.24-19.17,2.21-28.72.35-3.49,1-7.27,2.73-10.24,2.25-3.93,2.76-8.15,3.9-12.3,1-3.61,2.31-7.13,3.55-10.67,1.54-4.43,3-8.9,4.77-13.25a59.13,59.13,0,0,1,4.23-8.6c3.69-6.12,7.44-12.21,11.47-18.11,3.28-4.82,7-9.34,10.51-14,.89-1.17,1.74-2.37,3-4.11-1.45-.36-2.5-1-3.26-.72a9.61,9.61,0,0,0-3.32,2.09c-5.16,4.71-11.42,6.86-18,8.89a253.65,253.65,0,0,0-29,10.86c-5.4,2.42-9.93,6.72-15.07,9.81-5.58,3.35-11.43,6.28-17.91,9.8-.44-3.36-.74-5.69-1.09-8.33a10.19,10.19,0,0,0-2.8.36c-9.68,4.59-19.23,9.46-29,13.81a140,140,0,0,1-16.5,5.64c-1.87.57-4,.32-6.5.47.51-3.49.93-6.36,1.44-9.83a19.33,19.33,0,0,0-3.47,1c-12.46,6.72-26.58,6.51-39.93,9.45-5.25,1.16-5.93.2-7.28-5.69-2.11.61-4.23,1.16-6.3,1.85-9.31,3.08-18.58,6.35-28.64,5.47-.94-.08-1.88-.11-2.82-.23a7.08,7.08,0,0,1-1.47-.69l1.6-4.2c-.48-.31-.82-.71-1.07-.66-7.9,1.72-15.82,3.36-23.67,5.29a66.39,66.39,0,0,0-10,3.51c-6.58,2.79-13,6-19.63,8.64-8.8,3.53-17.09,7.84-24.39,14-1.82,1.53-3.84,3.09-6.88,2.24-.92-3.82,1.42-6.66,3.47-9,4.88-5.49,10.26-10.54,15.53-15.66,2.69-2.62,5.78-4.84,8.35-7.56a74.71,74.71,0,0,1,17.57-14.11c1-.54,2.45-1.23,2.58-2,1-6.19,6.62-7.22,10.77-9.7,3.19-1.9,6.87-3,10.72-4.61-.87-5.43,2.74-7,7.29-8.39,4.1-1.26,7.92-3.5,11.77-5.5,4.08-2.11,8.19-3.77,12.94-3.37a19.14,19.14,0,0,0,4.32-.6c1.56-3.67-1.57-5.76-2.35-8.41,4.65-5,10.13-6.14,34.05-6.93-.26-1.61-.53-3.14-.75-4.68-.45-3.18.25-4.73,3.39-5.47,2.7-.64,5.84-1.35,8.31-.56,4.49,1.43,8.93,1.16,13.42,1.21,6,.07,12,0,18.37,0-.34-1.87-.62-3.44-1-5.73l10.61.47c0-3.1-2-3.59-3.79-3.59-3.75,0-7.51.26-11.24.63-8.33.83-16.5-.56-24.69-1.59-1.21-.15-2.33-1.06-3.66-1.71l1.09-6.93-12.38,1.26c-2.05.21-4.11.44-6.16.64-3.54.34-7.11,1.13-10.61.87-6-.44-11.88-1.5-17.8-2.41-.6-.09-1.09-.89-1.63-1.38,1.4-2.77,2.69-5.32,4.3-8.53-17.09-.4-33.64,2.56-49.37-5.37,1-2.55,2-4.86,3.16-7.85-18.69-1-37.14-.22-54.5-9.38l11.16-14.33a55,55,0,0,1-27.84-5.9c-8.25-4-18.07-5.21-24.93-12.74l9.91-9.64c-.13-.43-.26-.85-.4-1.28-6.88-.35-13.87,0-20.21-3.2-6-3-12.35-5.47-16.68-11.19l6.9-7.75c-10.24-4.14-19.81-8.23-28.63-14.25.83-2.06,1.42-3.55,2.05-5.11a7.86,7.86,0,0,0-1.14-1.22c-4.32-3-9.27-5.31-12.87-9-5.72-5.84-12.69-9.57-19.76-12.88-9.38-4.39-18.8-8.58-28-13.44-6-3.2-13.15-4.42-19.81-6.45-2.31-.71-4.69-1.18-7.62-1.91C72,613.17,77,612.37,81.65,612c5.38-.46,10.87.52,16.31.55,15.31.09,30,5.29,45.4,5.1,8.79-.11,17.46,2.61,25.85,7.21.59-2.11,1.06-3.81,1.68-6.05,3.53,0,7.39-.68,10.89.14a193.38,193.38,0,0,1,22.12,6.65c3.22,1.18,5.92,3.81,9.37,6.12.34-2.49.58-4.85,1-7.17.66-3.69,2.34-4.9,5.45-2.89,6.4,4.15,13.46,6.62,20.48,9.27,3.3,1.25,6.77,2.08,10,3.44a28.69,28.69,0,0,1,6.15,3.73c2.34,1.79,4.44,3.89,7.7,6.8.45-5.75.79-10.14,1.12-14.42.45-.32.79-.76,1-.72,6.64,1.21,13.25,2.4,18.6,7.17a32.18,32.18,0,0,0,7.06,4.36c4.45,2.24,8.47,4.92,11.26,9.17.77,1.18,1.75,2.22,2.93,3.71,2.92-4.21,1.29-8.61,2.54-12.59a6,6,0,0,1,6.29.56c8.69,5.62,17.24,11.45,26.05,16.87a55.46,55.46,0,0,1,14,12.39c.19-1.19.44-2.38.56-3.57.49-4.86,3.09-7,7.95-6.51a11.45,11.45,0,0,1,3.27.81,75.25,75.25,0,0,1,26.95,19.16,54.34,54.34,0,0,1,4.55,6.46,15.54,15.54,0,0,1,1.12,2.61l1.69-.78c.79-2.94,1.59-5.88,2.49-9.22,2.23,1,4.43,1.4,5.85,2.68,7.07,6.36,16.93,9.52,21.53,18.71a5.8,5.8,0,0,0,1,1.37c2.18,2.32,3.58,2.08,4.89-.85a26.18,26.18,0,0,0,.84-2.6c7.57,1.89,11.57,8.14,16.78,12.71,5.36,4.7,9.89,10.09,12.81,17.62l3.67-5.63c5.89,3.92,10.23,9,14.22,14.73s8.85,10.69,13.38,16c5-1.22,4.8-1.09,8.08,3.48,4.71,6.57,9.58,13,14.7,19.3,1.43,1.76,4.11,2.43,6,3.92,4.41,3.54,8.64,7.28,13,10.9,1.37,1.14,2.85,2.15,4.59,3.45,1.35-4.7-1.28-7.32-3.43-9.65-9.57-10.38-19.43-20.5-29.11-30.78-8.65-9.18-17.07-18.59-25.86-27.64a72.84,72.84,0,0,0-19.68-14.05,39,39,0,0,1-13.8-11l4.71-6.11c-15.21-6.68-29.52-14.14-40.19-26.92a34.48,34.48,0,0,1-2.76-4.55c2.66-3.34,7.71-1.4,9.38-5.74a15.08,15.08,0,0,0-2.25-1.55c-4.8-2.16-9.76-4-14.42-6.44-9-4.69-18.1-9.32-26.66-14.74-4.52-2.86-8-7.33-11.92-11.15-.45-.44-.43-1.36-.74-2.44l10.32-5c-5.59-3.85-10.67-7.19-15.58-10.77-5.16-3.77-10.5-7.4-15.13-11.76-4.41-4.15-9.58-7.93-11.82-14.58,4.85-.58,9.27-1.21,12.68-4.93-16.1-8.44-26.83-22.49-38.69-35.55,4.25-5.38,11.42-3.12,15.54-7.75-8.09-3.37-14.11-9-20.08-14.73-1.06-1-2.19-3.07-1.84-4.2.8-2.59-.47-3.89-2-5.39a88.84,88.84,0,0,0-15.59-13c-4.56-2.89-8.43-6.88-12.49-10.51-.87-.78-1.24-2.11-2-3.53,7.44-1.18,14.33-2.46,21.64-5.88-3.38-1.77-6-2.79-8.14-4.36a40.4,40.4,0,0,1-5.7-5.48q-13.1-14.07-26.08-28.22a46.71,46.71,0,0,1-3.14-4.45c6.52-1.12,12.58-.57,18-4.88-1.52-1.85-2.89-3.5-4.24-5.16-5.45-6.71-11-13.31-16.27-20.17-2.56-3.35-3.92-7.29-2.12-11.73,3.58-.91,7.77.54,10.68-3a84.77,84.77,0,0,1-6.08-6.61c-4.72-6.32-9.28-12.76-13.81-19.22-2.58-3.68-2-5.93,1.82-8.31,1.06-.66,2-1.48,3.41-2.49-8.81-8.89-12.19-20-15.83-31.18-1.36-4.18-4.61-7.71-6.57-11.75-3.7-7.58-6.64-15.56-10.72-22.92s-9.1-14.25-13.86-21.24c-8.37-12.27-18.24-23.54-24.83-37-1-2-3.38-4.1-.87-6.57,1.79-1.76,3.35-1.35,6.69,1.89,7.16,7,14.09,14.2,21.38,21,11.4,10.69,23,21.13,34.55,31.72,2.78,2.55,5.38,5.29,8.13,7.87,4,3.73,8,7.39,12.07,11.08s8.15,7.27,12,11.13c1.79,1.79,3.36,3.1,5.83,1.59,2-1.25,3.62-.46,5,1,2.08,2.18,4.15,4.38,6.12,6.66,2.83,3.28,5.69,6.54,8.33,10,2.15,2.81,4,5.86,6,8.8.59.88,1.15,1.77,2.15,3.33,2.62-4,4.91-7.49,7.51-11.46,11.25,8.38,16.9,19.62,20.73,31.75,4.31-.29,4.31-4,6.75-6.42,2.15,2.36,4.54,4.44,6.25,7,3,4.52,5.7,9.3,8.46,14,1.06,1.8,1.82,3.57,4.57,3.45,1.05-.05,2.6,1.42,3.18,2.57,1.18,2.33,1.79,4.94,2.76,7.39,1.92,4.82,6.22,6,10.39,2.89,1.34-1,2.53-2.22,3.78-3.33,2.93.67,3.94,3,5,5.17,5.25,11.06,10.8,22,12.92,34.27.06.34.38.62,1,1.64a40.77,40.77,0,0,0,5-2.54,39.53,39.53,0,0,0,4.25-3.74c4.5,2.81,5.74,7.24,7.36,11.39,2.86,7.35,6.24,14.51,7.35,22.48.42,3,3.12,3.84,6.14,2.18,1.74-1,3.16-2.49,5.28-4.21,2.2,4.25,4.54,8.08,6.21,12.19,2.55,6.27,4.85,12.64,4.75,19.63,0,3,.78,5.92,1.17,8.59,3.64,2.15,4.85-1.65,7.8-2.39,1,1.2,2.56,2.4,3.39,4,4.4,8.34,9,16.64,9.21,26.44,0,.56-.08,1.32.23,1.65,4.49,4.71,2.76,10.63,3.22,16.12a4.63,4.63,0,0,0,.3.79c5.06,1.28,5.94-5,10.17-6a67.22,67.22,0,0,1,8,22.65c1.31,7.76,2.55,15.52,3.89,23.7l5.17-.79c5.1,14.9,11.56,29.51,8.65,47,1.94-1.13,3.17-1.78,4.33-2.55,4.07-2.71,7.14-1.41,8,3.49.28,1.66.05,3.41.34,5.07,1.94,10.8,3.24,21.61,1,32.54-.1.48.27,1.06.63,2.3,2.12-1,4.06-1.92,6-2.8,2.58-1.15,4.13-.52,4.39,2.24a88.58,88.58,0,0,1,.14,10.18c-.16,7.55-.28,15,1.82,22.45,1.05,3.72,1.1,7.73,1.65,12l6.27-1.37a16.56,16.56,0,0,1,1.49,3.5,15.15,15.15,0,0,1,.09,4.51c-1.64,13.76,3.51,25.93,9,38,4.51,9.93,9.36,19.69,14,29.56.55,1.17.4,2.68,1,3.78a30,30,0,0,0,3.16,4l1.43-.43a25.33,25.33,0,0,0,.31-5c-.34-2.57-1.23-5.06-1.67-7.62-2.31-13.53-4.32-27.11-6.94-40.58-.73-3.76-3-7.28-4.86-10.74-5.07-9.45-10.31-18.8-15.45-28.22a56.83,56.83,0,0,1-3.76-7.58c-1.3-3.58,0-5.41,3.75-5.72,2-.16,4.11,0,6.38,0,0-1.16.26-2,0-2.54-5.18-9.16-10.37-18.32-15.69-27.41-2.08-3.56-4.6-6.87-6.68-10.44a18.7,18.7,0,0,1-1.85-5.31c-.89-4,.6-5.59,4.81-5.16,2,.2,3.92.67,6.17,1.07.16-3.15-1.93-4.15-3.23-5.58-3.08-3.4-5.91-6.78-5.71-11.85.06-1.52-.95-3.21-1.79-4.63a55.44,55.44,0,0,1-6.43-15c-1.7-6.71-4.28-13.2-6.37-19.82a58.38,58.38,0,0,1-1.24-6.17c5.81-.79,10.25,4.12,16.52,2.12-2-2.5-4-4.23-5.13-6.39-3.91-7.51-8-15-11.1-22.84-2.21-5.52-3.25-11.56-4.35-17.46-.37-2,.69-4.22,1.14-6.57l11.34,2.42c-3.73-10.68-8-20-10.12-29.72s-7.83-18.69-7.93-29.3c5.84-.08,10.33,4.21,16.4,2.74-9.71-15.45-19-30.82-19.08-50.15l16.4,2.18c-1.48-3-2.37-5-3.47-6.94-3-5.26-5.51-10.61-6.09-16.85-.35-3.69-1.78-7.31-2.93-10.9a35.31,35.31,0,0,1-1.13-14.47c3.64-2.61,7.06-2.25,10.73-.39,3.24,1.64,6.51,3.81,10.44,2.42,0-.63.16-1.12,0-1.33-5.44-6.53-6.72-14.31-8-22.49-1.27-8.46-1.56-17.26-5.41-25.27-2-4.09-1.23-8.44-.23-13.1,6,.75,10.89,5.47,17.56,4.53a77.28,77.28,0,0,1-9.54-32.43c-.29-4.59-.84-9.38,1.05-14.15,8.95.67,15.15,8,24.56,9.6a41.23,41.23,0,0,0-1.92-4,27.39,27.39,0,0,1-4.55-17.15c.42-7,.16-14,.63-20.91.27-4,1.41-8,2.23-12.42,5.89,2.48,6.37,11,14,10.14-1.36-3.42-3-6.39-3.68-9.56a48.86,48.86,0,0,1-.7-10c0-3.39.49-6.79.35-10.17-.16-3.81,1.13-6.58,4.73-8.56l5.69,3.16c.2-6.25,0-12,.68-17.6s.41-11.61,3.44-17.22l5.5,3.16c.55-.37,1.12-.59,1.11-.76-.62-7.35,3.29-13.86,3.86-21A5.74,5.74,0,0,1,566,143c4.28-6.21,4.55-13.5,5.4-20.56.77-6.35.87-12.78,1.3-19.18.87-13,1.34-26,2.8-38.87,1.1-9.68,3.46-19.23,5.32-28.82.59-3,1.39-6.06,2.23-9.68,4.3,2.22,6.38,4.63,6.15,9.06-.71,14,1.67,27.71,4.14,41.42,1.36,7.57,1.88,15.29,2.9,22.93.7,5.19,1.69,10.33,2.4,15.52.44,3.16.38,6.39.94,9.52.87,5,2,9.88,3.15,14.78,1.1,4.63,1.86,9.15.46,13.93-.53,1.8.3,4,.59,6,.36,2.57,1.15,5.13,1.12,7.68-.07,6.53-.63,13.06-.7,19.59a10.7,10.7,0,0,0,1.53,5.82c1.91,2.83,1.67,5.61,1.21,8.65S606.39,207.12,606,211.25ZM471.7,799.87l.48-1.21c-3.23-4.15-4.46-4.49-8.59-1.89C466.53,797.91,469.12,798.89,471.7,799.87Z" transform="translate(-68.34 -25.9)"/></svg>