<svg id="Capa_1" data-name="Capa 1" xmlns="http://www.w3.org/2000/svg" viewBox="0 0 1919.99 415.42"><defs><style>.cls-1{fill:#2a3330;}</style></defs><title>logo</title><path class="cls-1" d="M72.47,24.38l46.68,119.83h7.31l47-119.83h69V257.77H198.57V75.92h-8l-46,118.1H95.44L49.11,75.58H41.46V257.77H0V24.38Z"/><path class="cls-1" d="M353.25,77.68c48.07,0,83.26,26.48,83.26,80.13v23.33H307.28v2.44c0,30.66,15.67,45.28,41.81,45.28h4.18c25.09,0,37.63-10.44,41.81-27.87h39.37c-4.18,37.63-32.05,60.27-81.16,60.27h-4.18c-47.73,0-83.26-26.12-83.26-79.42v-24c0-53.65,35.53-80.13,83.26-80.13h4.14Zm-46,72.45h87.78c-1.05-26.12-17.77-40-42.15-40h-4.18C323.3,110.08,308.33,123.65,307.28,150.13Z"/><path class="cls-1" d="M501,81.16v21.25h7c10.1-15.67,27.51-24.74,49.47-24.74h4.18c34.48,0,59.22,21.59,59.22,69.66V257.75H578V155c0-27.17-13.59-40.42-36.24-40.42h-4.18c-23,0-36.58,13.23-36.58,40.42V257.75H458.11V81.13H501v0Z"/><path class="cls-1" d="M813.07,0V257.77H770.23V237.21h-7c-11.84,16.38-29.61,24-50.86,24h-4.18c-39.71,0-67.58-25.43-67.58-79.76v-24c0-54,27.87-79.76,67.58-79.76h4.18c21.25,0,39,8,50.86,23.69h7V0ZM683.5,157.1v24.74c0,29.27,15.33,44.94,41.45,44.94h3.84c26.14,0,41.45-15.67,41.45-44.94V157.1c0-28.9-15-44.94-41.45-44.94H725C698.81,112.16,683.5,128.2,683.5,157.1Z"/><path class="cls-1" d="M923.15,77.68c48.41,0,83.94,26.82,83.94,79.76v24c0,53.65-35.53,79.76-83.94,79.76H919c-48.78,0-84.31-26.12-84.31-79.76v-24c0-53,35.53-79.76,84.31-79.76ZM877.52,157.1v24.74c0,28.9,13.94,44.94,41.45,44.94h4.18c27.17,0,41.1-16,41.1-44.94V157.1c0-28.56-13.94-44.94-41.1-44.94H919C891.8,112.16,877.52,128.54,877.52,157.1Z"/><path class="cls-1" d="M1129.74,20.91c58.17,0,95.43,30.66,95.43,89.88v3.84h-44.23v-3.84c-.34-34.84-19.51-51.54-51.54-51.54h-6.26c-31.69,0-52.25,17.41-52.25,54.7V167.6c0,39,20.56,55.38,52.25,55.38h6.63c31.69,0,52.25-16,52.25-52.25v-2.44h44.6v2.44c0,61.3-38.32,90.57-96.83,90.57h-6.63c-57.83,0-96.85-29.61-96.85-93.7V114c0-61.67,39-93,96.85-93h6.58v0Z"/><path class="cls-1" d="M1324.47,77.68c50.86,0,75.58,23.69,75.58,63.74V257.76h-42.5V237.2h-7c-12.89,16.72-28.92,24-53,24-31.35,0-57.48-16-57.48-53.65,0-33.08,21.59-53.3,71.06-53.3h46.33V141.4c0-22-12.54-31-33.08-31h-4.18c-18.12,0-33.08,9-33.08,30.66h-41.81c0-39.71,26.12-63.4,74.89-63.4h4.2v0Zm-42.15,126.78c0,15,10.44,23.33,30.3,23.33,24,0,44.94-11.15,44.94-41.45v-5.23h-42.84c-23,0-32.4,8.38-32.4,23.35Z"/><path class="cls-1" d="M1466.24,81.16v21.25h7c10.1-15.67,27.51-24.74,49.47-24.74h4.18c34.48,0,59.22,21.59,59.22,69.66V257.75h-42.84V155c0-27.17-13.59-40.42-36.24-40.42h-4.18c-23,0-36.58,13.23-36.58,40.42V257.75H1423.4V81.13h42.84v0Z"/><path class="cls-1" d="M1652.26,81.16v21.25h7c10.1-15.67,27.51-24.74,49.47-24.74h4.18c34.48,0,59.22,21.59,59.22,69.66V257.75h-42.84V155c0-27.17-13.59-40.42-36.24-40.42h-4.18c-23,0-36.58,13.23-36.58,40.42V257.75h-42.84V81.13h42.84v0Z"/><path class="cls-1" d="M1884.49,174.4a31.24,31.24,0,0,0,8.53-4.91c18.27-14.94,27-19.51,27-19.51s-19.34,2.17-33.64,8.88A75.41,75.41,0,0,0,1865.53,174l-.34.28s-.13,0-.26.06c0-.15-.09-.32,0-.41s.17-.28.26-.41a216.23,216.23,0,0,0,26.67-34.82,112.64,112.64,0,0,0,14.86-43.46,183.13,183.13,0,0,0-28.11,35.42c-9,14.88-12.89,30.88-14.37,39.11-.09.36-.19.71-.28,1.07-.28,1-.56,2-.81,3.07-.06.21,0,.45-.32.51s-.47-.11-.45-.49c0-.62.09-1.22.09-1.84a243,243,0,0,0,7.78-49.49,133.18,133.18,0,0,0-6.71-48.91s-9.41,20.2-10.72,48.11c-1,21,4.63,40,7.48,48.16.15.86.28,1.69.43,2.55.06.34.17.66.21,1a3.66,3.66,0,0,1,0,.66l-.19.06a3.07,3.07,0,0,1-.41-.54c-.09-.15-.06-.34-.13-.49-.32-.69-.64-1.37-1-2.06-1.69-7.74-6.26-24.38-16.49-39.52-13.89-20.58-34-33-34-33a199.49,199.49,0,0,0,21.12,41.7,216.39,216.39,0,0,0,28.73,33.92,1,1,0,0,1,0,.54,7.18,7.18,0,0,1-.6-.45,3.88,3.88,0,0,1-.36-.32,74.82,74.82,0,0,0-20.78-15.05c-14.32-6.71-39.69-8-39.69-8s5,.84,23.24,15.78c4.65,3.82,11.6,6.26,18.42,7.83l-.56.06c-6.93.77-17,11.88-18.5,13.49.75-.64,4.61-2.64,23.89-4.35a32,32,0,0,0,12.74-4c.3-.11.6-.19.88-.28a6,6,0,0,0,2.36-1.16,2,2,0,0,1,.43-.28c.11,0,.24,0,.43.09l-.39.54c-.47.62-.94,1.2-1.37,1.84s-1,1.57-1.5,2.38a8,8,0,0,0-.56,1.14c-.24.58-.43,1.16-.62,1.74s-.34.92-.47,1.39a6.41,6.41,0,0,1-.51,1.61,3.55,3.55,0,0,0-.36,1.35c-.13,1.24-.21,2.51-.3,3.77,0,.45,0,.9,0,1.33,0,.15.11.28.19.49a1.53,1.53,0,0,0,.28-.36c.36-.75.71-1.52,1.07-2.29.66-1.37,1.33-2.77,2-4.12a23.1,23.1,0,0,0,1.63-3.49c.47-1.46,1-2.89,1.54-4.33a2.46,2.46,0,0,1,.45-.75.59.59,0,0,1,1,0,4.76,4.76,0,0,1,.6,1.27,20.18,20.18,0,0,0,2,4.7,3.89,3.89,0,0,1,.26.6,12.32,12.32,0,0,0,.94,2.4,7.13,7.13,0,0,1,.64,1.5c.36,1.24.69,2.51,1,3.77a4.45,4.45,0,0,0,.21.45c.21-.56.39-1,.56-1.39a5.29,5.29,0,0,0,.43-2.1,23.87,23.87,0,0,0-.41-4.12,14.11,14.11,0,0,0-1.69-4,36.78,36.78,0,0,0-2.64-3.75c-.28-.39-.58-.75-.84-1.14-.06-.09-.09-.32,0-.39a.4.4,0,0,1,.24-.06c1.39,1.29,4.37,3.3,10.48,5.19,10,3.09,31.13-4.57,31.13-4.57s-12.86-3.32-20.35-4.16a2.21,2.21,0,0,0-.6-.11Z"/><path class="cls-1" d="M301.32,315.45H279.05v15.14h24.46l-.77,4.86H273.23V292.66h29.16v4.86H279.05v13.06h22.27Z"/><path class="cls-1" d="M338.93,335.45,327,317.86h-.07L315,335.45h-6.59l15.13-21.68-14.58-21.11h6.91l11.3,16.64h.06l11.58-16.64h6.52l-14.83,20.63,15.37,22.16Z"/><path class="cls-1" d="M352.39,292.66h17c8.72,0,14.68,4.65,14.68,12.45,0,8.34-6.28,12.76-15,12.76H358.37v17.58h-6Zm6,20.43h10.37c6.13,0,9.2-2.86,9.2-7.84,0-5.21-3.71-7.82-9-7.82h-10.6Z"/><path class="cls-1" d="M432.18,313.81c0,11.77-6.9,22.26-21,22.26-13.18,0-20.54-9.74-20.54-22s7.51-22,21.06-22C424.3,292,432.18,301.09,432.18,313.81Zm-35.33.06c0,9.25,4.95,17.36,14.58,17.36,10.4,0,14.54-8.19,14.54-17.34s-4.7-17-14.52-17C401.3,296.88,396.85,304.74,396.85,313.87Z"/><path class="cls-1" d="M444.14,323.54c1.22,5.13,4.89,7.9,11.38,7.9,7,0,9.75-3.13,9.75-7.17,0-4.29-2.21-6.7-11.18-8.77-10.55-2.45-14.22-5.91-14.22-11.92,0-6.36,4.91-11.54,14.9-11.54,10.67,0,15.06,5.89,15.66,11.51h-6c-.81-3.81-3.3-6.93-9.83-6.93-5.45,0-8.52,2.35-8.52,6.42s2.53,5.61,10.38,7.42c12.77,3,15,7.72,15,13.21,0,6.91-5.35,12.32-16.3,12.32-11.26,0-16.11-5.89-17-12.45Z"/><path class="cls-1" d="M486.09,292.66v42.79h-5.94V292.66Z"/><path class="cls-1" d="M533.31,323.32c-2,7.26-7.65,12.67-17.81,12.67-13.4,0-20.15-9.71-20.15-21.81,0-11.63,6.76-22.14,20.37-22.14,10.56,0,16.29,5.76,17.61,12.91h-5.94c-1.6-4.66-4.83-8.18-11.91-8.18-9.88,0-13.91,8.58-13.91,17.24,0,8.4,3.83,17.24,14.17,17.24,6.9,0,9.93-3.78,11.61-7.93Z"/><path class="cls-1" d="M548,292.66v42.79h-5.94V292.66Z"/><path class="cls-1" d="M598.82,313.81c0,11.77-6.91,22.26-21,22.26-13.18,0-20.54-9.74-20.54-22s7.51-22,21.06-22C590.93,292,598.82,301.09,598.82,313.81Zm-35.34.06c0,9.25,5,17.36,14.58,17.36,10.4,0,14.54-8.19,14.54-17.34s-4.69-17-14.52-17C567.93,296.88,563.48,304.74,563.48,313.87ZM591.38,280l-11,8.47h-5.85L584,280Z"/><path class="cls-1" d="M608.1,335.45V292.66H616c6.42,10,20.39,31.29,22.9,35.94H639c-.43-5.49-.39-12.24-.39-19.23V292.66h5.62v42.79h-7.39c-5.92-9.29-20.49-32.19-23.29-37h-.09c.32,4.87.32,12.13.32,19.85v17.14Z"/><path class="cls-1" d="M672.27,292.66h16c12.58,0,21.1,8.19,21.1,21s-8.3,21.83-21.3,21.83h-15.8Zm5.93,38h9.4c10.54,0,15.55-7.21,15.55-16.89,0-8.45-4.57-16.27-15.53-16.27H678.2Z"/><path class="cls-1" d="M746.77,315.45H724.49v15.14H749l-.76,4.86H718.67V292.66h29.16v4.86H724.49v13.06h22.28Z"/><path class="cls-1" d="M757,292.66H763v37.93h23.35l-.82,4.86H757Z"/><path class="cls-1" d="M844.88,323.32c-2,7.26-7.65,12.67-17.81,12.67-13.39,0-20.15-9.71-20.15-21.81,0-11.63,6.76-22.14,20.37-22.14,10.56,0,16.29,5.76,17.61,12.91H839c-1.61-4.66-4.83-8.18-11.92-8.18-9.87,0-13.91,8.58-13.91,17.24,0,8.4,3.84,17.24,14.17,17.24,6.91,0,9.93-3.78,11.61-7.93Z"/><path class="cls-1" d="M859.49,322.61l-4.81,12.84h-5.91l16-42.79H872l16.63,42.79h-6.33l-5-12.84Zm16.35-4.86c-4.27-11.25-6.61-17.22-7.58-20.48h-.07c-1.09,3.63-3.71,10.86-7.15,20.48Z"/><path class="cls-1" d="M895.73,335.45V292.66h7.86c6.42,10,20.39,31.29,22.9,35.94h.09c-.43-5.49-.39-12.24-.39-19.23V292.66h5.62v42.79h-7.39c-5.92-9.29-20.48-32.19-23.29-37H901c.32,4.87.33,12.13.33,19.85v17.14Z"/><path class="cls-1" d="M944,335.45V292.66h7.86c6.42,10,20.39,31.29,22.91,35.94h.08c-.43-5.49-.39-12.24-.39-19.23V292.66h5.62v42.79h-7.39c-5.92-9.29-20.48-32.19-23.29-37h-.09c.32,4.87.33,12.13.33,19.85v17.14Z"/><path class="cls-1" d="M998.13,322.61l-4.82,12.84H987.4l16-42.79h7.31l16.63,42.79H1021l-5-12.84Zm16.35-4.86c-4.27-11.25-6.62-17.22-7.59-20.48h-.06c-1.1,3.63-3.72,10.86-7.16,20.48Z"/><path class="cls-1" d="M1034.36,292.66h17.19c9.47,0,13.87,4.76,13.87,10.68a9.42,9.42,0,0,1-6.42,9.33c3.12.95,7.89,4,7.89,10.25,0,8.06-6.43,12.53-14.92,12.53h-17.61Zm16.05,17.79c6.49,0,9-2.44,9-6.62,0-3.78-2.84-6.49-8.1-6.49h-11.14v13.11Zm-10.22,20.31h11.06c5.63,0,9.53-2.52,9.53-7.85,0-4.65-3.12-7.77-10.67-7.77h-9.92Z"/><path class="cls-1" d="M1082,292.66v42.79h-5.94V292.66Z"/><path class="cls-1" d="M1096.45,323.54c1.21,5.13,4.88,7.9,11.37,7.9,7,0,9.75-3.13,9.75-7.17,0-4.29-2.2-6.7-11.18-8.77-10.55-2.45-14.22-5.91-14.22-11.92,0-6.36,4.91-11.54,14.91-11.54,10.66,0,15.05,5.89,15.65,11.51h-6c-.81-3.81-3.3-6.93-9.83-6.93-5.45,0-8.51,2.35-8.51,6.42s2.52,5.61,10.37,7.42c12.77,3,15,7.72,15,13.21,0,6.91-5.35,12.32-16.3,12.32-11.26,0-16.11-5.89-17-12.45Z"/><path class="cls-1" d="M1187.2,317.21c0-7.94.09-16,.28-20.53h-.24c-1.91,6.94-9.16,25.31-14.3,38.77h-5.32c-3.88-10.95-11.38-31.54-13.4-38.85h-.2c.35,4.94.5,14.45.5,21.78v17.07h-5.59V292.66h8.86c5.08,13.28,11.29,30.41,12.83,35.86h.11c1-4.12,8.4-22.93,13.66-35.86H1193v42.79h-5.8Z"/><path class="cls-1" d="M1233.27,315.45H1211v15.14h24.46l-.77,4.86h-29.51V292.66h29.16v4.86H1211v13.06h22.27Z"/><path class="cls-1" d="M1243.54,335.45V292.66h7.86c6.42,10,20.39,31.29,22.9,35.94h.09c-.43-5.49-.39-12.24-.39-19.23V292.66h5.61v42.79h-7.38c-5.92-9.29-20.49-32.19-23.3-37h-.08c.32,4.87.32,12.13.32,19.85v17.14Z"/><path class="cls-1" d="M1291.81,292.66h16c12.59,0,21.1,8.19,21.1,21s-8.3,21.83-21.3,21.83h-15.8Zm5.93,38h9.4c10.54,0,15.55-7.21,15.55-16.89,0-8.45-4.57-16.27-15.53-16.27h-9.42Z"/><path class="cls-1" d="M1377.27,313.81c0,11.77-6.91,22.26-21,22.26-13.18,0-20.54-9.74-20.54-22s7.51-22,21.06-22C1369.38,292,1377.27,301.09,1377.27,313.81Zm-35.34.06c0,9.25,5,17.36,14.58,17.36,10.4,0,14.54-8.19,14.54-17.34s-4.69-17-14.52-17C1346.38,296.88,1341.93,304.74,1341.93,313.87Z"/><path class="cls-1" d="M1381.38,331.09l27.26-33.57h-25.9v-4.86h32.75v4.72l-26.81,33.21h27.67l-.83,4.86h-34.14Z"/><path class="cls-1" d="M1430.44,322.61l-4.81,12.84h-5.91l15.94-42.79H1443l16.64,42.79h-6.33l-5-12.84Zm16.35-4.86c-4.27-11.25-6.62-17.22-7.58-20.48h-.07c-1.09,3.63-3.72,10.86-7.16,20.48Z"/><path class="cls-1" d="M1480.08,335.45v-.34c0-5.85,4-11.9,12.75-18.22,6.79-4.95,8.64-6.52,8.64-11,0-4.06-2.26-7.13-7.35-7.13s-7.54,2.56-8.43,7.5h-5.54c.75-6.85,5.33-12,14-12,9.5,0,13.19,5.84,13.19,11.51,0,6.12-2.72,8.52-10.55,14.3-5.83,4.31-9,7.56-10,10.64H1509l-.81,4.76Z"/><path class="cls-1" d="M1544.14,314.93c0,10-3,21.26-14.82,21.26-11.57,0-14.77-10.51-14.77-21s3.48-21,15-21S1544.14,304.57,1544.14,314.93Zm-23.62.28c0,7.7,1.4,16.39,8.85,16.39s8.81-8.26,8.81-16.65c0-7.79-1.39-16.12-8.62-16.12C1522.15,298.83,1520.52,306.32,1520.52,315.21Z"/><path class="cls-1" d="M1550.36,335.45v-.34c0-5.85,4-11.9,12.76-18.22,6.79-4.95,8.63-6.52,8.63-11,0-4.06-2.25-7.13-7.34-7.13s-7.54,2.56-8.43,7.5h-5.54c.74-6.85,5.32-12,14-12,9.49,0,13.18,5.84,13.18,11.51,0,6.12-2.72,8.52-10.55,14.3-5.83,4.31-9,7.56-10,10.64h22.22l-.81,4.76Z"/><path class="cls-1" d="M1602.77,335.45V325h-19.9v-4.89L1602.13,295h6V320.4h5.48L1613,325h-4.87v10.42Zm0-25.27c0-3.12,0-7.12.15-9.76-1.72,3.12-10,13.91-14.5,20h14.35Z"/><path class="cls-1" d="M1620.7,313.24v-8.87h5.71v8.87Zm0,22.21v-8.91h5.71v8.91Z"/><path class="cls-1" d="M466.31,396.23c-2,7.26-7.65,12.67-17.81,12.67-13.4,0-20.15-9.71-20.15-21.81,0-11.63,6.76-22.14,20.37-22.14,10.56,0,16.29,5.76,17.61,12.91h-5.94c-1.6-4.66-4.83-8.18-11.91-8.18-9.88,0-13.91,8.58-13.91,17.24,0,8.4,3.83,17.25,14.17,17.25,6.9,0,9.93-3.79,11.61-7.94Z"/><path class="cls-1" d="M480.5,365.57v25.75c0,10.11,5.8,12.85,11.53,12.85,6.71,0,11.44-2.95,11.44-12.85V365.57h6V391c0,13.88-8,17.87-17.55,17.87-9.34,0-17.42-4.31-17.42-17.47V365.57Z"/><path class="cls-1" d="M521.08,365.57H527V403.5h23.36l-.83,4.86H521.08Z"/><path class="cls-1" d="M559.37,370.43H544.9v-4.86h34.93v4.86H565.35v37.93h-6Z"/><path class="cls-1" d="M592.15,365.57v42.79h-5.93V365.57Z"/><path class="cls-1" d="M615,408.36l-16.3-42.79h6.37L613,386.9c2.3,6.28,4.61,12.61,5.6,16.52h.13c.94-3.5,3.48-10.11,5.84-16.31l8.2-21.54h6.13L622,408.36Z"/><path class="cls-1" d="M684.09,386.72c0,11.77-6.9,22.26-21,22.26-13.18,0-20.54-9.74-20.54-22s7.51-22,21.06-22C676.21,365,684.09,374,684.09,386.72Zm-35.33.06c0,9.25,5,17.36,14.58,17.36,10.4,0,14.54-8.19,14.54-17.34s-4.69-17-14.52-17C653.21,369.79,648.76,377.65,648.76,386.78Z"/><path class="cls-1" d="M686,415.42a42.78,42.78,0,0,0,4.6-16.11h5.72c-.54,5.5-2.62,11.87-5.72,16.11Z"/><path class="cls-1" d="M727.38,365.57v42.79h-5.94V365.57Z"/><path class="cls-1" d="M739.52,408.36V365.57h7.87c6.42,10,20.39,31.29,22.9,35.94h.09C770,396,770,389.27,770,382.28V365.57h5.61v42.79h-7.38c-5.92-9.29-20.49-32.19-23.3-37h-.08c.32,4.88.32,12.13.32,19.85v17.14Z"/><path class="cls-1" d="M787.8,365.57h16c12.58,0,21.1,8.2,21.1,21s-8.3,21.83-21.3,21.83H787.8Zm5.93,38h9.4c10.54,0,15.55-7.21,15.55-16.89,0-8.45-4.57-16.27-15.53-16.27h-9.42Z"/><path class="cls-1" d="M840,365.57v25.75c0,10.11,5.8,12.85,11.53,12.85,6.71,0,11.45-2.95,11.45-12.85V365.57h6V391c0,13.88-8,17.87-17.56,17.87-9.33,0-17.42-4.31-17.42-17.47V365.57Z"/><path class="cls-1" d="M882.19,396.45c1.21,5.13,4.88,7.9,11.37,7.9,7,0,9.76-3.13,9.76-7.17,0-4.29-2.21-6.7-11.19-8.77-10.55-2.45-14.21-5.91-14.21-11.92,0-6.36,4.9-11.54,14.9-11.54,10.66,0,15,5.89,15.65,11.51h-6c-.8-3.81-3.3-6.93-9.83-6.93-5.45,0-8.51,2.35-8.51,6.43s2.53,5.6,10.37,7.41c12.77,3,15,7.72,15,13.22,0,6.9-5.35,12.31-16.3,12.31-11.27,0-16.12-5.88-17-12.45Z"/><path class="cls-1" d="M927.32,370.43H912.86v-4.86h34.92v4.86H933.3v37.93h-6Z"/><path class="cls-1" d="M960.06,389.51v18.85h-5.89V365.57h17.5c9.2,0,14.1,4.77,14.1,11.45a9.84,9.84,0,0,1-7.63,10.06c3.65.94,6.83,3.55,6.83,11v1.84c0,2.95-.14,6.68.61,8.47H979.8c-.81-1.84-.75-5.18-.75-9.2v-.91c0-6.09-1.81-8.74-9.84-8.74Zm0-4.77h9.73c6.85,0,9.86-2.46,9.86-7.27,0-4.55-3.11-7.13-9.19-7.13h-10.4Z"/><path class="cls-1" d="M1001.75,365.57v42.79h-5.94V365.57Z"/><path class="cls-1" d="M1019.75,395.52l-4.81,12.84H1009l16-42.79h7.31l16.63,42.79h-6.33l-5-12.84Zm16.35-4.86c-4.27-11.25-6.61-17.22-7.58-20.48h-.07c-1.09,3.63-3.71,10.86-7.15,20.48Z"/><path class="cls-1" d="M1082.29,408.36v-15.7a2.08,2.08,0,0,0-.31-1.13l-15.77-26H1073c4.07,6.95,10.56,18,12.6,21.74,1.93-3.7,8.62-14.82,12.85-21.74h6.35l-16.27,26.05a1.79,1.79,0,0,0-.27,1.1v15.64Z"/><path class="cls-1" d="M1164.93,390.12c0-7.94.09-16,.28-20.52H1165c-1.91,6.93-9.16,25.3-14.3,38.76h-5.32c-3.88-10.95-11.38-31.54-13.4-38.85h-.19c.34,4.95.49,14.45.49,21.78v17.07h-5.59V365.57h8.86c5.08,13.28,11.3,30.41,12.83,35.86h.11c1-4.12,8.4-22.93,13.66-35.86h8.61v42.79h-5.8Z"/><path class="cls-1" d="M1211,388.36h-22.27V403.5h24.46l-.77,4.86h-29.51V365.57h29.16v4.86h-23.34v13.06H1211Z"/><path class="cls-1" d="M1221.27,365.57h16c12.59,0,21.1,8.2,21.1,21s-8.3,21.83-21.3,21.83h-15.8Zm5.94,38h9.39c10.54,0,15.55-7.21,15.55-16.89,0-8.45-4.57-16.27-15.53-16.27h-9.41Z"/><path class="cls-1" d="M1273.61,365.57v42.79h-5.94V365.57Z"/><path class="cls-1" d="M1320.84,396.23c-2,7.26-7.66,12.67-17.82,12.67-13.39,0-20.14-9.71-20.14-21.81,0-11.63,6.76-22.14,20.37-22.14,10.56,0,16.29,5.76,17.61,12.91h-5.94c-1.6-4.66-4.83-8.18-11.91-8.18-9.88,0-13.92,8.58-13.92,17.24,0,8.4,3.84,17.25,14.17,17.25,6.91,0,9.93-3.79,11.62-7.94Z"/><path class="cls-1" d="M1335.53,365.57v42.79h-5.94V365.57Z"/><path class="cls-1" d="M1347.67,408.36V365.57h7.87c6.42,10,20.39,31.29,22.9,35.94h.09c-.44-5.49-.39-12.24-.39-19.23V365.57h5.61v42.79h-7.38c-5.92-9.29-20.49-32.19-23.3-37H1353c.33,4.88.33,12.13.33,19.85v17.14Z"/><path class="cls-1" d="M1401.8,395.52,1397,408.36h-5.91L1407,365.57h7.31L1431,408.36h-6.33l-5-12.84Zm16.35-4.86c-4.27-11.25-6.61-17.22-7.58-20.48h-.07c-1.09,3.63-3.72,10.86-7.16,20.48Z"/></svg>