<?xml version="1.0" encoding="UTF-8"?>
<svg id="Capa_1" data-name="Capa 1" xmlns="http://www.w3.org/2000/svg" viewBox="0 0 819.34 165.29">
  <defs>
    <style>
      .cls-1 {
        fill: #2a3330;
        stroke-width: 0px;
      }

      .cls-2 {
        letter-spacing: 0em;
      }

      .cls-3 {
        fill: #f4f7f0;
        font-family: AcuminPro-Bold, 'Acumin Pro';
        font-size: 80.87px;
        font-weight: 700;
      }

      .cls-4 {
        letter-spacing: 0em;
      }
    </style>
  </defs>
  <polygon class="cls-1" points="12.89 34.47 12.89 130.14 805.35 118.56 805.35 15.49 12.89 34.47"/>
  <path class="cls-1" d="m816.94,0L0,14.92l2.4,131.6,701.36-12.81,18.24,31.58,18.62-32.26,78.72-1.44-2.4-131.59ZM98.41,117.38l-1.09-55.7-2.45.05-13.38,36.44-15.05.29-14.9-36-2.35.05,1.09,55.8-12.7.25-1.39-71.49,22.19-.43,15.01,36.43,2.24-.04,13.69-36.99,21.13-.41,1.39,71.49-13.43.26Zm27.85-.54l-1.39-71.49,49.4-.96.22,11.31-35.85.7.36,18.25,30.83-.6.21,10.99-30.83.6.38,19.63,36.38-.71.22,11.31-49.93.97Zm102.65-2l-26.32-52.64-2.13.04,1.03,53.14-12.48.24-1.39-71.49,19.84-.39,26.22,52.65,2.24-.04-1.03-53.14,12.48-.24,1.39,71.49-19.85.38Zm61.36-1.2l-27.1.53-1.39-71.49,27.1-.53c20.16-.39,30.8,8.58,31.2,28.96l.24,12.59c.39,20.38-9.78,29.54-30.05,29.94Zm74.6-.39l-1.49.03c-18.67.36-31.24-9.32-31.62-28.95l-.28-14.41c-.38-19.63,11.8-29.9,30.47-30.27l1.5-.03c18.56-.36,31.14,9.43,31.52,29.06l.28,14.41c.37,19.64-11.81,29.8-30.38,30.16Zm74.27-1.44l-2.03.04c-17.71.34-29.84-8.49-30.22-28.12l-.32-16.43c-.37-18.89,11.39-28.72,29.11-29.07l2.03-.04c17.82-.35,29.42,8.82,29.77,26.96l.02,1.17-13.55.27-.02-1.17c-.31-10.67-6.28-15.68-16.1-15.49l-1.92.04c-9.71.19-15.9,5.65-15.68,17.06l.32,16.43c.23,11.95,6.63,16.84,16.34,16.65l2.03-.04c9.71-.19,15.91-5.22,15.69-16.32v-.75s13.65-.27,13.65-.27v.75c.37,18.79-11.19,27.98-29.12,28.33Zm88.87-2.8l-6.1-17.49-29.45.57-5.31,17.71-12.59.24,21.76-71.94,20.38-.4,24.87,71.03-13.56.28Zm62.95-1.23l-26.32-52.64-2.13.04,1.03,53.14-12.48.24-1.39-71.49,19.85-.39,26.22,52.65,2.24-.04-1.03-53.14,12.48-.24,1.39,71.49-19.86.38Zm74.16-1.44l-26.32-52.64-2.14.04,1.04,53.14-12.48.24-1.39-71.49,19.85-.39,26.22,52.65,2.24-.04-1.04-53.14,12.48-.24,1.39,71.49-19.85.38Zm109.79-7.95c5.89,1.45,15.82,5.47,15.82,5.47,0,0-17.72,3.89-25.37.36-4.69-2.16-6.86-4.09-7.84-5.26-.08-.01-.16-.02-.2.02-.06.05-.07.23-.03.31.17.34.37.66.55,1,.58,1.09,1.28,2.14,1.71,3.29.41,1.08.88,2.16.94,3.38.05,1.12.04,2.23-.11,3.34-.08.59-.27,1.12-.57,1.63-.19.32-.36.64-.6,1.06-.07-.21-.11-.3-.12-.39-.14-1.04-.27-2.09-.43-3.13-.07-.43-.17-.87-.35-1.27-.3-.65-.35-1.35-.5-2.03-.04-.17-.09-.35-.15-.51-.49-1.29-.93-2.59-1.08-3.97-.04-.37-.19-.73-.34-1.07-.12-.29-.52-.35-.76-.13-.17.16-.33.35-.44.56-.58,1.09-1.16,2.18-1.69,3.3-.45.95-1.07,1.77-1.67,2.62-.71,1.01-1.38,2.05-2.06,3.08-.37.57-.73,1.14-1.1,1.71-.05.08-.13.14-.27.27-.05-.18-.11-.3-.1-.42.03-.36.06-.72.13-1.07.2-1,.4-2,.63-2.98.09-.36.21-.75.43-1.04.29-.38.4-.82.58-1.24.15-.37.34-.72.52-1.07.22-.44.44-.89.68-1.32.17-.29.35-.58.56-.84.47-.59.95-1.18,1.46-1.74.41-.46.86-.88,1.3-1.32.11-.11.22-.22.37-.39-.15-.06-.25-.14-.33-.12-.13.02-.26.1-.38.17-.61.42-1.29.56-2.01.68-.25.04-.49.09-.74.14-2.54,1.02-6.23,2.03-10.6,1.85-15.6-.66-18.89.53-19.56.96,1.32-1.14,10.59-8.95,16.21-8.83.15,0,.31.01.46.02-5.28-1.98-10.57-4.67-13.89-8.21-13.02-13.88-16.92-15.07-16.92-15.07,0,0,20.15,3.75,30.88,10.63,7.13,4.58,12.33,10.66,15.02,14.23.09.1.18.19.26.29.13.14.27.26.43.43.07-.16.09-.3.07-.43-2.99-3.71-12.05-15.42-19.38-30.15-8.93-17.93-12.47-35.58-12.47-35.58,0,0,14.73,12.08,23.66,30.01,6.57,13.18,8.46,26.96,9,33.33.19.58.38,1.16.57,1.75.04.13.01.29.05.41.07.17.18.31.28.47.05-.01.1-.02.16-.03.04-.18.1-.35.1-.53,0-.27-.06-.55-.07-.82-.03-.7-.04-1.39-.07-2.09-1.41-6.81-3.89-22.61-.89-39.29,3.99-22.17,13.65-37.33,13.65-37.33,0,0,4.18,17.64.19,39.81-3.29,18.31-9.42,33.87-11.46,38.74-.07.49-.16.98-.26,1.46-.07.31.05.46.3.44.25-.01.24-.21.31-.37.32-.79.65-1.58.97-2.36.11-.27.23-.55.34-.82,2.06-6.42,6.82-18.8,15.62-29.74,12.55-15.61,26.22-25.34,26.22-25.34,0,0-3.93,17.56-16.48,33.17-10,12.44-20.96,21.75-25.01,25.02-.09.1-.17.19-.26.3-.05.07-.02.21-.03.33.11-.01.17,0,.22-.02.1-.06.2-.13.3-.19,3.51-2.74,10.13-7.29,18.24-9.86,12.15-3.86,27.84-3.54,27.84-3.54,0,0-7.45,2.73-23.63,12.74-2.35,1.45-4.85,2.41-7.35,3.03.2.02.37.06.54.1Z"/>
  <text class="cls-3" transform="translate(111.84 107.12) rotate(-.99)"><tspan x="0" y="0">19 y </tspan><tspan class="cls-2" x="159.71" y="0">2</tspan><tspan x="204.91" y="0">0 de Ab</tspan><tspan class="cls-4" x="489.63" y="0">r</tspan><tspan x="521.17" y="0">il</tspan></text>
</svg>